<svg width="293" height="228" viewBox="0 0 293 228" fill="none" xmlns="http://www.w3.org/2000/svg">
<path d="M0 16H287" stroke="#E0E3E9" stroke-width="2"/>
<path d="M0 53H287" stroke="#E0E3E9" stroke-width="2"/>
<path d="M0 90H287" stroke="#E0E3E9" stroke-width="2"/>
<path d="M0 127H287" stroke="#E0E3E9" stroke-width="2"/>
<path d="M0 164H287" stroke="#E0E3E9" stroke-width="2"/>
<path d="M0 201H287" stroke="#E0E3E9" stroke-width="2"/>
<path opacity="0.4" d="M1.26562 86.1113C0.714844 86.1113 0.369141 85.7891 0.369141 85.2793C0.369141 85.1328 0.410156 84.9336 0.486328 84.7168L2.79492 78.4297C3.04102 77.7441 3.45703 77.4277 4.125 77.4277C4.81641 77.4277 5.22656 77.7324 5.47852 78.4238L7.79883 84.7168C7.88086 84.9453 7.91016 85.1035 7.91016 85.2793C7.91016 85.7656 7.54102 86.1113 7.02539 86.1113C6.52734 86.1113 6.26367 85.8828 6.10547 85.332L5.66016 83.9961H2.60742L2.16211 85.3145C1.99805 85.877 1.73438 86.1113 1.26562 86.1113ZM2.99414 82.625H5.25L4.13086 79.1621H4.08984L2.99414 82.625ZM11.4492 86.1113C10.7578 86.1113 10.3477 85.8066 10.0898 85.0859L7.73438 78.7637C7.67578 78.5996 7.64648 78.4355 7.64648 78.2656C7.64648 77.7676 8.02148 77.4277 8.57812 77.4277C9.05273 77.4277 9.33398 77.6445 9.48047 78.125L11.4609 84.1777H11.502L13.4766 78.1074C13.623 77.6328 13.8867 77.4277 14.3496 77.4277C14.8887 77.4277 15.2578 77.7617 15.2578 78.2422C15.2578 78.4004 15.2285 78.5586 15.1699 78.7168L12.8027 85.0918C12.5449 85.8066 12.1348 86.1113 11.4492 86.1113ZM17.1152 86C16.5586 86 16.2305 85.6602 16.2305 85.0742V78.4648C16.2305 77.8848 16.5586 77.5449 17.1152 77.5449H21.1348C21.6211 77.5449 21.9375 77.8203 21.9375 78.2773C21.9375 78.7344 21.6152 79.0098 21.1348 79.0098H18V81.043H20.9824C21.4219 81.043 21.7207 81.3008 21.7207 81.7227C21.7207 82.1445 21.4277 82.4023 20.9824 82.4023H18V84.5352H21.1348C21.6152 84.5352 21.9375 84.8105 21.9375 85.2676C21.9375 85.7246 21.6211 86 21.1348 86H17.1152ZM23.9941 86.123C23.4434 86.123 23.1094 85.7832 23.1094 85.2031V78.4648C23.1094 77.8848 23.4375 77.5449 23.9941 77.5449H26.5723C28.5176 77.5449 29.6309 78.5703 29.6309 80.2402C29.6309 81.2949 29.1094 82.1973 28.1777 82.5957L29.3965 84.7051C29.543 84.957 29.584 85.1094 29.584 85.3145C29.584 85.7832 29.209 86.123 28.6934 86.123C28.2715 86.123 28.0781 85.9707 27.791 85.4551L26.3848 82.9062H24.8789V85.2031C24.8789 85.7832 24.5508 86.123 23.9941 86.123ZM24.8789 81.623H26.4023C27.293 81.623 27.8145 81.1133 27.8145 80.2754C27.8145 79.4551 27.2637 78.9277 26.3848 78.9277H24.8789V81.623ZM31.3594 86.1113C30.8086 86.1113 30.4629 85.7891 30.4629 85.2793C30.4629 85.1328 30.5039 84.9336 30.5801 84.7168L32.8887 78.4297C33.1348 77.7441 33.5508 77.4277 34.2188 77.4277C34.9102 77.4277 35.3203 77.7324 35.5723 78.4238L37.8926 84.7168C37.9746 84.9453 38.0039 85.1035 38.0039 85.2793C38.0039 85.7656 37.6348 86.1113 37.1191 86.1113C36.6211 86.1113 36.3574 85.8828 36.1992 85.332L35.7539 83.9961H32.7012L32.2559 85.3145C32.0918 85.877 31.8281 86.1113 31.3594 86.1113ZM33.0879 82.625H35.3438L34.2246 79.1621H34.1836L33.0879 82.625ZM42.4805 86.1406C39.9551 86.1406 38.4082 84.4941 38.4082 81.7461C38.4082 79.0391 39.9551 77.3984 42.4395 77.3984C44.0625 77.3984 45.334 78.1602 45.8086 79.1973C45.9082 79.4023 45.9375 79.5723 45.9375 79.7422C45.9375 80.1934 45.627 80.5039 45.1641 80.5039C44.7891 80.5039 44.5254 80.3457 44.3086 79.9883C43.8926 79.2324 43.2773 78.8633 42.4453 78.8633C41.0508 78.8633 40.2129 79.9238 40.2129 81.7227C40.2129 83.5566 41.1035 84.6758 42.5098 84.6758C43.6641 84.6758 44.4668 83.9668 44.502 82.918L44.5078 82.7832H43.2773C42.8555 82.7832 42.5684 82.543 42.5684 82.1387C42.5684 81.7344 42.8496 81.4941 43.2773 81.4941H45.3457C45.9023 81.4941 46.2305 81.834 46.2305 82.4141V82.543C46.2305 84.6934 44.8652 86.1406 42.4805 86.1406ZM48.2871 86C47.7305 86 47.4023 85.6602 47.4023 85.0742V78.4648C47.4023 77.8848 47.7305 77.5449 48.2871 77.5449H52.3066C52.793 77.5449 53.1094 77.8203 53.1094 78.2773C53.1094 78.7344 52.7871 79.0098 52.3066 79.0098H49.1719V81.043H52.1543C52.5938 81.043 52.8926 81.3008 52.8926 81.7227C52.8926 82.1445 52.5996 82.4023 52.1543 82.4023H49.1719V84.5352H52.3066C52.7871 84.5352 53.1094 84.8105 53.1094 85.2676C53.1094 85.7246 52.793 86 52.3066 86H48.2871Z" fill="#667085"/>
<path opacity="0.4" d="M1.58789 197C1.03125 197 0.703125 196.66 0.703125 196.074V189.354C0.703125 188.768 1.03125 188.428 1.58789 188.428C2.14453 188.428 2.47266 188.768 2.47266 189.354V195.535H5.47266C5.95312 195.535 6.27539 195.811 6.27539 196.268C6.27539 196.725 5.95898 197 5.47266 197H1.58789ZM7.78125 197.111C7.23047 197.111 6.88477 196.789 6.88477 196.279C6.88477 196.133 6.92578 195.934 7.00195 195.717L9.31055 189.43C9.55664 188.744 9.97266 188.428 10.6406 188.428C11.332 188.428 11.7422 188.732 11.9941 189.424L14.3145 195.717C14.3965 195.945 14.4258 196.104 14.4258 196.279C14.4258 196.766 14.0566 197.111 13.541 197.111C13.043 197.111 12.7793 196.883 12.6211 196.332L12.1758 194.996H9.12305L8.67773 196.314C8.51367 196.877 8.25 197.111 7.78125 197.111ZM9.50977 193.625H11.7656L10.6465 190.162H10.6055L9.50977 193.625ZM18.9023 197.141C16.377 197.141 14.8301 195.494 14.8301 192.746C14.8301 190.039 16.377 188.398 18.8613 188.398C20.4844 188.398 21.7559 189.16 22.2305 190.197C22.3301 190.402 22.3594 190.572 22.3594 190.742C22.3594 191.193 22.0488 191.504 21.5859 191.504C21.2109 191.504 20.9473 191.346 20.7305 190.988C20.3145 190.232 19.6992 189.863 18.8672 189.863C17.4727 189.863 16.6348 190.924 16.6348 192.723C16.6348 194.557 17.5254 195.676 18.9316 195.676C20.0859 195.676 20.8887 194.967 20.9238 193.918L20.9297 193.783H19.6992C19.2773 193.783 18.9902 193.543 18.9902 193.139C18.9902 192.734 19.2715 192.494 19.6992 192.494H21.7676C22.3242 192.494 22.6523 192.834 22.6523 193.414V193.543C22.6523 195.693 21.2871 197.141 18.9023 197.141ZM27.6328 197.141C25.1074 197.141 23.5605 195.494 23.5605 192.746C23.5605 190.039 25.1074 188.398 27.5918 188.398C29.2148 188.398 30.4863 189.16 30.9609 190.197C31.0605 190.402 31.0898 190.572 31.0898 190.742C31.0898 191.193 30.7793 191.504 30.3164 191.504C29.9414 191.504 29.6777 191.346 29.4609 190.988C29.0449 190.232 28.4297 189.863 27.5977 189.863C26.2031 189.863 25.3652 190.924 25.3652 192.723C25.3652 194.557 26.2559 195.676 27.6621 195.676C28.8164 195.676 29.6191 194.967 29.6543 193.918L29.6602 193.783H28.4297C28.0078 193.783 27.7207 193.543 27.7207 193.139C27.7207 192.734 28.002 192.494 28.4297 192.494H30.498C31.0547 192.494 31.3828 192.834 31.3828 193.414V193.543C31.3828 195.693 30.0176 197.141 27.6328 197.141ZM35.666 197.111C35.1094 197.111 34.7812 196.771 34.7812 196.191V193.842L32.2031 189.857C32.0742 189.658 32.0215 189.459 32.0215 189.26C32.0215 188.779 32.3965 188.428 32.9062 188.428C33.2871 188.428 33.4922 188.568 33.7266 188.973L35.6602 192.154H35.7012L37.6406 188.973C37.8633 188.586 38.0918 188.428 38.4434 188.428C38.9414 188.428 39.3164 188.779 39.3164 189.248C39.3164 189.453 39.2578 189.646 39.1289 189.852L36.5508 193.842V196.191C36.5508 196.771 36.2227 197.111 35.666 197.111Z" fill="#667085"/>
<path d="M241 66L241 199.5" stroke="#7F56D9" stroke-width="4" stroke-linecap="round" stroke-dasharray="10 10"/>
<path d="M35.4609 224.188C32.1172 224.188 30.0859 222 30.0859 218.359C30.0859 214.727 32.1562 212.531 35.3984 212.531C37.5078 212.531 39.1406 213.469 39.9141 215.094C40.0703 215.391 40.1484 215.695 40.1484 215.977C40.1484 216.594 39.7344 216.992 39.1094 216.992C38.5781 216.992 38.2422 216.758 37.9844 216.211C37.4688 215.062 36.5469 214.484 35.4219 214.484C33.6406 214.484 32.4922 215.977 32.4922 218.352C32.4922 220.758 33.625 222.242 35.4297 222.242C36.6172 222.242 37.5078 221.703 38.0156 220.57C38.2578 220.039 38.5547 219.828 39.0547 219.828C39.7188 219.828 40.1562 220.25 40.1562 220.875C40.1562 221.141 40.0938 221.391 39.9766 221.664C39.2734 223.227 37.5938 224.188 35.4609 224.188ZM44.625 224.156C42.8125 224.156 41.6094 222.977 41.6094 221.023V216.648C41.6094 215.867 42.0859 215.453 42.75 215.453C43.4219 215.453 43.8906 215.867 43.8906 216.648V220.547C43.8906 221.664 44.4453 222.258 45.4531 222.258C46.4688 222.258 47.1016 221.531 47.1016 220.422V216.648C47.1016 215.867 47.5781 215.453 48.2422 215.453C48.9141 215.453 49.3828 215.867 49.3828 216.648V223.008C49.3828 223.766 48.9375 224.164 48.2812 224.164C47.625 224.164 47.1797 223.766 47.1797 223.008V222.492H47.1328C46.7188 223.547 45.8906 224.156 44.625 224.156ZM52.0078 224.164C51.3203 224.164 50.8672 223.734 50.8672 222.977V216.602C50.8672 215.875 51.3125 215.453 51.9688 215.453C52.6094 215.453 53.0469 215.875 53.0469 216.602V217.148H53.0938C53.3125 216.109 54 215.492 54.8359 215.492C55.1406 215.492 55.3828 215.562 55.5469 215.703C55.7656 215.875 55.875 216.156 55.875 216.547C55.875 216.906 55.7656 217.18 55.5469 217.367C55.3281 217.555 55 217.656 54.5547 217.664C53.5156 217.68 53.1484 218.266 53.1484 219.258V222.977C53.1484 223.734 52.7031 224.164 52.0078 224.164ZM57.8359 224.164C57.1484 224.164 56.6953 223.734 56.6953 222.977V216.602C56.6953 215.875 57.1406 215.453 57.7969 215.453C58.4375 215.453 58.875 215.875 58.875 216.602V217.148H58.9219C59.1406 216.109 59.8281 215.492 60.6641 215.492C60.9688 215.492 61.2109 215.562 61.375 215.703C61.5938 215.875 61.7031 216.156 61.7031 216.547C61.7031 216.906 61.5938 217.18 61.375 217.367C61.1562 217.555 60.8281 217.656 60.3828 217.664C59.3438 217.68 58.9766 218.266 58.9766 219.258V222.977C58.9766 223.734 58.5312 224.164 57.8359 224.164ZM66.1094 224.18C63.4922 224.18 61.9531 222.562 61.9531 219.852C61.9531 217.156 63.5234 215.445 66 215.445C68.375 215.445 69.9688 217.07 69.9688 219.344C69.9688 219.977 69.6094 220.336 68.9766 220.336H64.1953V220.438C64.1953 221.68 64.9453 222.492 66.1016 222.492C66.9375 222.492 67.4844 222.211 68.1016 221.484C68.3438 221.234 68.5469 221.148 68.8438 221.148C69.3359 221.148 69.7344 221.461 69.7344 221.984C69.7344 222.164 69.6797 222.352 69.5781 222.539C69.0234 223.57 67.7266 224.18 66.1094 224.18ZM64.2188 218.938H67.7734C67.7266 217.844 67.0234 217.133 66.0234 217.133C65.0234 217.133 64.2969 217.867 64.2188 218.938ZM72.2891 224.164C71.625 224.164 71.1484 223.758 71.1484 222.977V216.602C71.1484 215.891 71.5625 215.453 72.25 215.453C72.9375 215.453 73.3906 215.891 73.3906 216.609V217.078H73.4375C73.8828 216.039 74.7266 215.469 76.0156 215.469C77.875 215.469 78.9219 216.641 78.9219 218.602V222.977C78.9219 223.758 78.4453 224.164 77.7812 224.164C77.1094 224.164 76.6406 223.758 76.6406 222.977V219.078C76.6406 217.984 76.125 217.359 75.1016 217.359C74.0781 217.359 73.4297 218.109 73.4297 219.195V222.977C73.4297 223.758 72.9609 224.164 72.2891 224.164ZM80.9766 221.859V217.344H80.5391C80 217.344 79.6562 217.016 79.6562 216.484C79.6562 215.953 80 215.625 80.5391 215.625H80.9766V214.695C80.9766 213.961 81.4062 213.508 82.1172 213.508C82.8281 213.508 83.2578 213.961 83.2578 214.695V215.625H84.0625C84.6016 215.625 84.9375 215.961 84.9375 216.484C84.9375 217.008 84.6016 217.344 84.0625 217.344H83.2578V221.352C83.2578 221.945 83.4609 222.195 83.9531 222.234L84.1016 222.25C84.6641 222.312 84.9688 222.547 84.9688 223.078C84.9688 223.75 84.3125 224.094 83.3516 224.094H83.2734C81.75 224.094 80.9766 223.336 80.9766 221.859Z" fill="#F04438"/>
<path d="M194.43 224.148C193.688 224.148 193.281 223.789 193.047 222.945L190.695 214.414C190.617 214.125 190.57 213.844 190.57 213.633C190.57 212.977 191.016 212.57 191.734 212.57C192.352 212.57 192.727 212.914 192.867 213.586L194.555 220.891H194.617L196.516 213.625C196.695 212.891 197.07 212.57 197.727 212.57C198.367 212.57 198.758 212.914 198.93 213.609L200.828 220.891H200.891L202.578 213.586C202.727 212.906 203.102 212.57 203.719 212.57C204.438 212.57 204.883 212.977 204.883 213.633C204.883 213.836 204.836 214.117 204.758 214.414L202.398 222.961C202.164 223.789 201.758 224.148 201.031 224.148C200.273 224.148 199.859 223.797 199.633 222.953L197.758 216.297H197.688L195.82 222.953C195.594 223.781 195.172 224.148 194.43 224.148ZM207.375 214.586C206.688 214.586 206.156 214.062 206.156 213.406C206.156 212.742 206.688 212.227 207.375 212.227C208.062 212.227 208.594 212.742 208.594 213.406C208.594 214.062 208.062 214.586 207.375 214.586ZM207.375 224.164C206.664 224.164 206.234 223.719 206.234 222.977V216.648C206.234 215.906 206.664 215.453 207.375 215.453C208.078 215.453 208.516 215.906 208.516 216.648V222.977C208.516 223.719 208.078 224.164 207.375 224.164ZM210.648 221.859V217.344H210.211C209.672 217.344 209.328 217.016 209.328 216.484C209.328 215.953 209.672 215.625 210.211 215.625H210.648V214.695C210.648 213.961 211.078 213.508 211.789 213.508C212.5 213.508 212.93 213.961 212.93 214.695V215.625H213.734C214.273 215.625 214.609 215.961 214.609 216.484C214.609 217.008 214.273 217.344 213.734 217.344H212.93V221.352C212.93 221.945 213.133 222.195 213.625 222.234L213.773 222.25C214.336 222.312 214.641 222.547 214.641 223.078C214.641 223.75 213.984 224.094 213.023 224.094H212.945C211.422 224.094 210.648 223.336 210.648 221.859ZM216.922 224.164C216.258 224.164 215.781 223.758 215.781 222.977V213.727C215.781 212.992 216.203 212.555 216.906 212.555C217.609 212.555 218.023 212.992 218.023 213.727V217.117H218.07C218.516 216.062 219.43 215.469 220.703 215.469C222.562 215.469 223.625 216.672 223.625 218.609V222.977C223.625 223.758 223.156 224.164 222.484 224.164C221.82 224.164 221.344 223.758 221.344 222.977V219.094C221.344 218.016 220.812 217.359 219.773 217.359C218.695 217.359 218.062 218.117 218.062 219.219V222.977C218.062 223.758 217.594 224.164 216.922 224.164ZM229.633 224.148C228.891 224.148 228.453 223.695 228.453 222.922V213.805C228.453 213.023 228.891 212.57 229.633 212.57C230.375 212.57 230.812 213.023 230.812 213.805V217.305H235.891V213.805C235.891 213.023 236.328 212.57 237.07 212.57C237.812 212.57 238.25 213.023 238.25 213.805V222.922C238.25 223.695 237.812 224.148 237.07 224.148C236.328 224.148 235.891 223.695 235.891 222.922V219.25H230.812V222.922C230.812 223.695 230.375 224.148 229.633 224.148ZM241.352 227.102C240.352 227.102 239.812 226.719 239.812 226.031C239.812 225.57 240.133 225.281 240.648 225.281C240.805 225.281 240.891 225.289 241.047 225.289C241.445 225.289 241.875 225.117 242.148 224.531L242.266 224.234L239.594 217.188C239.508 216.953 239.461 216.703 239.461 216.516C239.461 215.898 239.969 215.453 240.641 215.453C241.242 215.453 241.555 215.711 241.742 216.375L243.562 222.172H243.602L245.422 216.359C245.609 215.727 245.938 215.453 246.523 215.453C247.18 215.453 247.633 215.883 247.633 216.484C247.633 216.672 247.586 216.938 247.508 217.156L244.938 224.141C244.156 226.305 243.188 227.102 241.352 227.102ZM249.758 226.984C249.094 226.984 248.617 226.578 248.617 225.797V216.625C248.617 215.859 249.086 215.453 249.742 215.453C250.398 215.453 250.867 215.859 250.867 216.633V217.086H250.914C251.367 216.102 252.297 215.492 253.508 215.492C255.633 215.492 256.938 217.109 256.938 219.812C256.938 222.508 255.641 224.133 253.547 224.133C252.328 224.133 251.391 223.539 250.945 222.594H250.898V225.797C250.898 226.578 250.43 226.984 249.758 226.984ZM252.742 222.297C253.883 222.297 254.602 221.336 254.602 219.812C254.602 218.297 253.883 217.32 252.742 217.32C251.625 217.32 250.891 218.312 250.891 219.812C250.891 221.328 251.625 222.297 252.742 222.297ZM261.969 224.18C259.352 224.18 257.812 222.562 257.812 219.852C257.812 217.156 259.383 215.445 261.859 215.445C264.234 215.445 265.828 217.07 265.828 219.344C265.828 219.977 265.469 220.336 264.836 220.336H260.055V220.438C260.055 221.68 260.805 222.492 261.961 222.492C262.797 222.492 263.344 222.211 263.961 221.484C264.203 221.234 264.406 221.148 264.703 221.148C265.195 221.148 265.594 221.461 265.594 221.984C265.594 222.164 265.539 222.352 265.438 222.539C264.883 223.57 263.586 224.18 261.969 224.18ZM260.078 218.938H263.633C263.586 217.844 262.883 217.133 261.883 217.133C260.883 217.133 260.156 217.867 260.078 218.938ZM268.148 224.164C267.461 224.164 267.008 223.734 267.008 222.977V216.602C267.008 215.875 267.453 215.453 268.109 215.453C268.75 215.453 269.188 215.875 269.188 216.602V217.148H269.234C269.453 216.109 270.141 215.492 270.977 215.492C271.281 215.492 271.523 215.562 271.688 215.703C271.906 215.875 272.016 216.156 272.016 216.547C272.016 216.906 271.906 217.18 271.688 217.367C271.469 217.555 271.141 217.656 270.695 217.664C269.656 217.68 269.289 218.266 269.289 219.258V222.977C269.289 223.734 268.844 224.164 268.148 224.164ZM277.758 224.188C274.867 224.188 273.031 222.5 273.031 220.016V213.805C273.031 213.023 273.469 212.57 274.211 212.57C274.953 212.57 275.391 213.023 275.391 213.805V219.781C275.391 221.227 276.242 222.172 277.758 222.172C279.266 222.172 280.117 221.227 280.117 219.781V213.805C280.117 213.023 280.555 212.57 281.297 212.57C282.039 212.57 282.477 213.023 282.477 213.805V220.016C282.477 222.5 280.641 224.188 277.758 224.188ZM285.305 226.984C284.641 226.984 284.164 226.578 284.164 225.797V216.625C284.164 215.859 284.633 215.453 285.289 215.453C285.945 215.453 286.414 215.859 286.414 216.633V217.086H286.461C286.914 216.102 287.844 215.492 289.055 215.492C291.18 215.492 292.484 217.109 292.484 219.812C292.484 222.508 291.188 224.133 289.094 224.133C287.875 224.133 286.938 223.539 286.492 222.594H286.445V225.797C286.445 226.578 285.977 226.984 285.305 226.984ZM288.289 222.297C289.43 222.297 290.148 221.336 290.148 219.812C290.148 218.297 289.43 217.32 288.289 217.32C287.172 217.32 286.438 218.312 286.438 219.812C286.438 221.328 287.172 222.297 288.289 222.297Z" fill="#5F5FFE"/>
<path opacity="0.15" d="M110 126.5C88.2449 160.625 68.6734 165.273 60.2893 164.04C58.763 163.815 56.9742 164.935 56.9536 166.478L56.527 198.473C56.5122 199.588 57.4118 200.5 58.5268 200.5H239.985C241.095 200.5 241.993 199.595 241.985 198.485L241.04 71.87C241.026 70.0176 238.664 69.1627 237.361 70.4801C217.017 91.0603 208.265 71.1389 191.5 94C158.5 139 129 100.5 110 126.5Z" fill="url(#paint0_linear_342_11965)"/>
<path d="M56 163C61 166 84.5 166.499 110 126.5C129 100.5 158.5 139 191.5 94C209.231 69.8207 213.5 96.5 236.5 69.5C239 67 251 53 280.5 53" stroke="url(#paint1_linear_342_11965)" stroke-width="3"/>
<rect x="196" width="91" height="46" rx="4" fill="#7F56D9"/>
<path d="M215.297 19.1406C213.551 19.1406 212.432 18.4434 212.092 17.5176C212.033 17.3652 211.998 17.2012 211.998 17.043C211.998 16.5742 212.32 16.2637 212.777 16.2637C213.141 16.2637 213.381 16.4043 213.592 16.7793C213.867 17.4238 214.529 17.7168 215.338 17.7168C216.287 17.7168 216.932 17.2598 216.932 16.6387C216.932 16.082 216.533 15.7656 215.473 15.5488L214.576 15.373C212.889 15.0391 212.062 14.2305 212.062 12.9707C212.062 11.4238 213.41 10.3984 215.291 10.3984C216.838 10.3984 218.004 11.0488 218.379 12.1504C218.42 12.2676 218.443 12.3906 218.443 12.543C218.443 12.9648 218.139 13.252 217.688 13.252C217.289 13.252 217.043 13.0938 216.844 12.7305C216.562 12.0918 216.018 11.8281 215.291 11.8281C214.418 11.8281 213.838 12.2383 213.838 12.8594C213.838 13.3809 214.242 13.7031 215.244 13.9023L216.135 14.084C217.928 14.4414 218.701 15.1621 218.701 16.4453C218.701 18.0977 217.406 19.1406 215.297 19.1406ZM220.096 17.3945V14.0078H219.768C219.363 14.0078 219.105 13.7617 219.105 13.3633C219.105 12.9648 219.363 12.7188 219.768 12.7188H220.096V12.0215C220.096 11.4707 220.418 11.1309 220.951 11.1309C221.484 11.1309 221.807 11.4707 221.807 12.0215V12.7188H222.41C222.814 12.7188 223.066 12.9707 223.066 13.3633C223.066 13.7559 222.814 14.0078 222.41 14.0078H221.807V17.0137C221.807 17.459 221.959 17.6465 222.328 17.6758L222.439 17.6875C222.861 17.7344 223.09 17.9102 223.09 18.3086C223.09 18.8125 222.598 19.0703 221.877 19.0703H221.818C220.676 19.0703 220.096 18.502 220.096 17.3945ZM225.703 19.0996C224.508 19.0996 223.6 18.3262 223.6 17.1953C223.6 16.0527 224.479 15.3906 226.049 15.2969L227.631 15.2031V14.7871C227.631 14.2012 227.221 13.8613 226.576 13.8613C226.055 13.8613 225.738 14.0312 225.357 14.5234C225.17 14.7344 224.953 14.8398 224.678 14.8398C224.262 14.8398 223.963 14.5703 223.963 14.1836C223.963 14.0488 223.992 13.9258 224.051 13.7969C224.344 13.0469 225.352 12.584 226.652 12.584C228.264 12.584 229.312 13.416 229.312 14.6816V18.2617C229.312 18.8301 228.967 19.123 228.48 19.123C228.018 19.123 227.695 18.8652 227.66 18.3613V18.0391H227.625C227.273 18.707 226.488 19.0996 225.703 19.0996ZM226.266 17.8633C227.016 17.8633 227.631 17.377 227.631 16.6973V16.2402L226.307 16.3223C225.668 16.3691 225.305 16.6562 225.305 17.1016C225.305 17.5703 225.691 17.8633 226.266 17.8633ZM231.299 19.123C230.807 19.123 230.461 18.8301 230.461 18.2559V11.3125C230.461 10.7266 230.818 10.416 231.316 10.416C231.82 10.416 232.172 10.7266 232.172 11.3125V13.8086H232.207C232.553 13.0645 233.256 12.6191 234.146 12.6191C235.734 12.6191 236.701 13.832 236.701 15.8594C236.701 17.8809 235.74 19.0996 234.152 19.0996C233.232 19.0996 232.535 18.6543 232.184 17.9219H232.148V18.2559C232.148 18.8242 231.797 19.123 231.299 19.123ZM233.566 17.7227C234.416 17.7227 234.949 17.0078 234.949 15.8594C234.949 14.7168 234.416 13.9902 233.566 13.9902C232.734 13.9902 232.166 14.7344 232.166 15.8594C232.166 16.9961 232.734 17.7227 233.566 17.7227ZM238.488 19.123C237.99 19.123 237.633 18.8184 237.633 18.2324V11.3125C237.633 10.7266 237.99 10.416 238.488 10.416C238.992 10.416 239.344 10.7266 239.344 11.3125V18.2324C239.344 18.8184 238.992 19.123 238.488 19.123ZM243.387 19.1348C241.424 19.1348 240.27 17.9219 240.27 15.8887C240.27 13.8672 241.447 12.584 243.305 12.584C245.086 12.584 246.281 13.8027 246.281 15.5078C246.281 15.9824 246.012 16.252 245.537 16.252H241.951V16.3281C241.951 17.2598 242.514 17.8691 243.381 17.8691C244.008 17.8691 244.418 17.6582 244.881 17.1133C245.062 16.9258 245.215 16.8613 245.438 16.8613C245.807 16.8613 246.105 17.0957 246.105 17.4883C246.105 17.623 246.064 17.7637 245.988 17.9043C245.572 18.6777 244.6 19.1348 243.387 19.1348ZM241.969 15.2031H244.635C244.6 14.3828 244.072 13.8496 243.322 13.8496C242.572 13.8496 242.027 14.4004 241.969 15.2031ZM250.576 19.1113C250.02 19.1113 249.691 18.7715 249.691 18.1914V11.4648C249.691 10.8848 250.02 10.5449 250.576 10.5449H254.531C255.018 10.5449 255.334 10.8203 255.334 11.2773C255.334 11.7344 255.012 12.0098 254.531 12.0098H251.461V14.2715H254.244C254.701 14.2715 255 14.5352 255 14.9688C255 15.4082 254.707 15.6719 254.244 15.6719H251.461V18.1914C251.461 18.7715 251.133 19.1113 250.576 19.1113ZM257.162 19.1113C256.605 19.1113 256.277 18.7715 256.277 18.1914V11.4648C256.277 10.8848 256.605 10.5449 257.162 10.5449H259.717C261.451 10.5449 262.646 11.6992 262.646 13.4395C262.646 15.1738 261.41 16.334 259.629 16.334H258.047V18.1914C258.047 18.7715 257.719 19.1113 257.162 19.1113ZM258.047 14.9512H259.242C260.256 14.9512 260.848 14.4121 260.848 13.4453C260.848 12.4844 260.262 11.9453 259.248 11.9453H258.047V14.9512ZM266.789 19.1406C265.043 19.1406 263.924 18.4434 263.584 17.5176C263.525 17.3652 263.49 17.2012 263.49 17.043C263.49 16.5742 263.812 16.2637 264.27 16.2637C264.633 16.2637 264.873 16.4043 265.084 16.7793C265.359 17.4238 266.021 17.7168 266.83 17.7168C267.779 17.7168 268.424 17.2598 268.424 16.6387C268.424 16.082 268.025 15.7656 266.965 15.5488L266.068 15.373C264.381 15.0391 263.555 14.2305 263.555 12.9707C263.555 11.4238 264.902 10.3984 266.783 10.3984C268.33 10.3984 269.496 11.0488 269.871 12.1504C269.912 12.2676 269.936 12.3906 269.936 12.543C269.936 12.9648 269.631 13.252 269.18 13.252C268.781 13.252 268.535 13.0938 268.336 12.7305C268.055 12.0918 267.51 11.8281 266.783 11.8281C265.91 11.8281 265.33 12.2383 265.33 12.8594C265.33 13.3809 265.734 13.7031 266.736 13.9023L267.627 14.084C269.42 14.4414 270.193 15.1621 270.193 16.4453C270.193 18.0977 268.898 19.1406 266.789 19.1406Z" fill="white"/>
<path d="M223.014 32.6328C222.703 32.6328 222.539 32.416 222.539 32.1172C222.539 31.9766 222.557 31.8418 222.592 31.7188C222.785 30.9746 223.412 30.5469 224.18 30.5469C224.789 30.5469 225.199 30.8281 225.715 31.2617C226.131 31.6133 226.447 31.8359 226.752 31.8359C227.115 31.8359 227.314 31.6133 227.426 31.1152C227.479 30.875 227.613 30.7109 227.889 30.7109C228.17 30.7109 228.34 30.9277 228.34 31.209C228.34 31.3672 228.316 31.5195 228.275 31.6602C228.076 32.334 227.525 32.7734 226.764 32.7734C226.172 32.7734 225.727 32.5156 225.047 31.9355C224.789 31.7129 224.525 31.4844 224.186 31.4844C223.775 31.4844 223.564 31.7363 223.453 32.2285C223.4 32.457 223.266 32.6328 223.014 32.6328ZM230.232 35C229.922 35 229.723 34.8301 229.723 34.5664C229.723 34.3496 229.77 34.2559 230.021 33.9922L232.729 31.168C233.865 29.9785 234.135 29.5273 234.135 28.8184C234.135 27.957 233.473 27.3242 232.564 27.3242C231.65 27.3242 231.012 27.7988 230.725 28.707C230.654 28.9238 230.537 29.0762 230.25 29.0762C229.939 29.0762 229.764 28.8828 229.764 28.6074C229.764 28.5312 229.77 28.4668 229.781 28.3965C229.904 27.5293 230.836 26.4043 232.564 26.4043C234.088 26.4043 235.189 27.3887 235.189 28.7539C235.189 29.6797 234.768 30.377 233.32 31.8594L231.199 34.0391V34.0625H234.891C235.189 34.0625 235.389 34.25 235.389 34.5312C235.389 34.8125 235.189 35 234.891 35H230.232ZM239.508 35.1406C237.533 35.1406 236.391 33.4414 236.391 30.7695C236.391 28.1211 237.545 26.4043 239.508 26.4043C241.471 26.4043 242.613 28.1094 242.613 30.7637C242.613 33.4355 241.477 35.1406 239.508 35.1406ZM239.508 34.2207C240.826 34.2207 241.553 32.8789 241.553 30.7695C241.553 28.6895 240.814 27.3301 239.508 27.3301C238.201 27.3301 237.451 28.7012 237.451 30.7637C237.451 32.873 238.184 34.2207 239.508 34.2207ZM244.412 33.6406C244.711 33.6406 244.922 33.8164 244.922 34.1035C244.922 34.209 244.91 34.2969 244.875 34.4258L244.336 36.4414C244.271 36.6934 244.137 36.8105 243.891 36.8105C243.656 36.8105 243.475 36.6758 243.475 36.4414C243.475 36.3535 243.486 36.2949 243.492 36.2598L243.908 34.0859C243.973 33.7637 244.137 33.6406 244.412 33.6406ZM247.125 35.1055C246.814 35.1055 246.615 34.8711 246.615 34.5605V29.3164C246.615 29.0117 246.814 28.8008 247.096 28.8008C247.377 28.8008 247.576 29.0117 247.576 29.3164V29.8789H247.6C247.887 29.2344 248.508 28.8008 249.328 28.8008C250.16 28.8008 250.775 29.2227 251.039 29.9609H251.062C251.402 29.2344 252.117 28.8008 252.973 28.8008C254.18 28.8008 254.959 29.5859 254.959 30.793V34.5605C254.959 34.8711 254.76 35.1055 254.449 35.1055C254.139 35.1055 253.939 34.8711 253.939 34.5605V31.0273C253.939 30.1953 253.477 29.7031 252.674 29.7031C251.865 29.7031 251.297 30.3008 251.297 31.127V34.5605C251.297 34.8711 251.098 35.1055 250.787 35.1055C250.477 35.1055 250.277 34.8711 250.277 34.5605V30.916C250.277 30.1836 249.785 29.7031 249.029 29.7031C248.221 29.7031 247.635 30.3359 247.635 31.1797V34.5605C247.635 34.8711 247.436 35.1055 247.125 35.1055ZM258.375 35.1055C257.291 35.1055 256.441 34.6191 256.148 33.8574C256.113 33.7695 256.102 33.6934 256.102 33.6172C256.102 33.3477 256.301 33.1953 256.564 33.1953C256.746 33.1953 256.893 33.2891 257.01 33.5C257.314 34.0332 257.678 34.2734 258.457 34.2734C259.236 34.2734 259.764 33.9336 259.764 33.3652C259.764 32.9258 259.512 32.6914 258.826 32.5215L257.895 32.2871C256.717 31.9941 256.148 31.4375 256.148 30.582C256.148 29.5215 257.08 28.8008 258.457 28.8008C259.459 28.8008 260.35 29.3633 260.508 30.0957C260.52 30.1543 260.525 30.2012 260.525 30.248C260.525 30.4883 260.373 30.6465 260.127 30.6465C259.928 30.6465 259.787 30.582 259.676 30.3711C259.412 29.8613 259.02 29.6387 258.398 29.6387C257.666 29.6387 257.156 30.0078 257.156 30.5293C257.156 30.9512 257.484 31.2441 258.152 31.4082L259.061 31.6309C260.332 31.9414 260.801 32.3867 260.801 33.2832C260.801 34.373 259.822 35.1055 258.375 35.1055Z" fill="white"/>
<path d="M233.5 46H249.5L243.135 52.5635C242.366 53.3568 241.099 53.376 240.307 52.6064L233.5 46Z" fill="#7F56D9"/>
<rect x="12.5" y="97" width="88" height="46" rx="4" fill="#F04438"/>
<path d="M23.748 116.141C21.5801 116.141 20.2031 114.875 20.2031 113.012V108.354C20.2031 107.768 20.5312 107.428 21.0879 107.428C21.6445 107.428 21.9727 107.768 21.9727 108.354V112.836C21.9727 113.92 22.6113 114.629 23.748 114.629C24.8789 114.629 25.5176 113.92 25.5176 112.836V108.354C25.5176 107.768 25.8457 107.428 26.4023 107.428C26.959 107.428 27.2871 107.768 27.2871 108.354V113.012C27.2871 114.875 25.9102 116.141 23.748 116.141ZM29.4082 116.123C28.9102 116.123 28.5527 115.818 28.5527 115.232V110.451C28.5527 109.918 28.8633 109.59 29.3789 109.59C29.8945 109.59 30.2344 109.918 30.2344 110.457V110.809H30.2695C30.6035 110.029 31.2363 109.602 32.2031 109.602C33.5977 109.602 34.3828 110.48 34.3828 111.951V115.232C34.3828 115.818 34.0254 116.123 33.5273 116.123C33.0234 116.123 32.6719 115.818 32.6719 115.232V112.309C32.6719 111.488 32.2852 111.02 31.5176 111.02C30.75 111.02 30.2637 111.582 30.2637 112.396V115.232C30.2637 115.818 29.9121 116.123 29.4082 116.123ZM38.0273 116.135C36.5859 116.135 35.625 115.619 35.3262 114.881C35.2852 114.77 35.2617 114.658 35.2617 114.564C35.2617 114.172 35.5547 113.908 35.9531 113.908C36.2285 113.908 36.4629 114.031 36.6973 114.295C37.0312 114.734 37.418 114.934 38.0684 114.934C38.6895 114.934 39.0938 114.676 39.0938 114.26C39.0938 113.92 38.877 113.738 38.2617 113.604L37.207 113.381C35.9766 113.117 35.3555 112.49 35.3555 111.559C35.3555 110.357 36.3926 109.584 38.0215 109.584C39.3223 109.584 40.2773 110.176 40.4824 110.885C40.5059 110.973 40.5234 111.055 40.5234 111.137C40.5234 111.482 40.3066 111.723 39.8672 111.723C39.6445 111.723 39.3984 111.641 39.2461 111.459C38.9473 111.078 38.6074 110.785 37.9922 110.785C37.4121 110.785 37.0078 111.061 37.0078 111.465C37.0078 111.793 37.2539 112.01 37.8809 112.145L38.918 112.367C40.2539 112.648 40.8047 113.141 40.8047 114.078C40.8047 115.326 39.6855 116.135 38.0273 116.135ZM42.1113 114.395V111.008H41.7832C41.3789 111.008 41.1211 110.762 41.1211 110.363C41.1211 109.965 41.3789 109.719 41.7832 109.719H42.1113V109.021C42.1113 108.471 42.4336 108.131 42.9668 108.131C43.5 108.131 43.8223 108.471 43.8223 109.021V109.719H44.4258C44.8301 109.719 45.082 109.971 45.082 110.363C45.082 110.756 44.8301 111.008 44.4258 111.008H43.8223V114.014C43.8223 114.459 43.9746 114.646 44.3438 114.676L44.4551 114.688C44.877 114.734 45.1055 114.91 45.1055 115.309C45.1055 115.812 44.6133 116.07 43.8926 116.07H43.834C42.6914 116.07 42.1113 115.502 42.1113 114.395ZM47.7188 116.1C46.5234 116.1 45.6152 115.326 45.6152 114.195C45.6152 113.053 46.4941 112.391 48.0645 112.297L49.6465 112.203V111.787C49.6465 111.201 49.2363 110.861 48.5918 110.861C48.0703 110.861 47.7539 111.031 47.373 111.523C47.1855 111.734 46.9688 111.84 46.6934 111.84C46.2773 111.84 45.9785 111.57 45.9785 111.184C45.9785 111.049 46.0078 110.926 46.0664 110.797C46.3594 110.047 47.3672 109.584 48.668 109.584C50.2793 109.584 51.3281 110.416 51.3281 111.682V115.262C51.3281 115.83 50.9824 116.123 50.4961 116.123C50.0332 116.123 49.7109 115.865 49.6758 115.361V115.039H49.6406C49.2891 115.707 48.5039 116.1 47.7188 116.1ZM48.2812 114.863C49.0312 114.863 49.6465 114.377 49.6465 113.697V113.24L48.3223 113.322C47.6836 113.369 47.3203 113.656 47.3203 114.102C47.3203 114.57 47.707 114.863 48.2812 114.863ZM53.3145 116.123C52.8223 116.123 52.4766 115.83 52.4766 115.256V108.312C52.4766 107.727 52.834 107.416 53.332 107.416C53.8359 107.416 54.1875 107.727 54.1875 108.312V110.809H54.2227C54.5684 110.064 55.2715 109.619 56.1621 109.619C57.75 109.619 58.7168 110.832 58.7168 112.859C58.7168 114.881 57.7559 116.1 56.168 116.1C55.248 116.1 54.5508 115.654 54.1992 114.922H54.1641V115.256C54.1641 115.824 53.8125 116.123 53.3145 116.123ZM55.582 114.723C56.4316 114.723 56.9648 114.008 56.9648 112.859C56.9648 111.717 56.4316 110.99 55.582 110.99C54.75 110.99 54.1816 111.734 54.1816 112.859C54.1816 113.996 54.75 114.723 55.582 114.723ZM60.5039 116.123C60.0059 116.123 59.6484 115.818 59.6484 115.232V108.312C59.6484 107.727 60.0059 107.416 60.5039 107.416C61.0078 107.416 61.3594 107.727 61.3594 108.312V115.232C61.3594 115.818 61.0078 116.123 60.5039 116.123ZM65.4023 116.135C63.4395 116.135 62.2852 114.922 62.2852 112.889C62.2852 110.867 63.4629 109.584 65.3203 109.584C67.1016 109.584 68.2969 110.803 68.2969 112.508C68.2969 112.982 68.0273 113.252 67.5527 113.252H63.9668V113.328C63.9668 114.26 64.5293 114.869 65.3965 114.869C66.0234 114.869 66.4336 114.658 66.8965 114.113C67.0781 113.926 67.2305 113.861 67.4531 113.861C67.8223 113.861 68.1211 114.096 68.1211 114.488C68.1211 114.623 68.0801 114.764 68.0039 114.904C67.5879 115.678 66.6152 116.135 65.4023 116.135ZM63.9844 112.203H66.6504C66.6152 111.383 66.0879 110.85 65.3379 110.85C64.5879 110.85 64.043 111.4 63.9844 112.203ZM72.5918 116.111C72.0352 116.111 71.707 115.771 71.707 115.191V108.465C71.707 107.885 72.0352 107.545 72.5918 107.545H76.5469C77.0332 107.545 77.3496 107.82 77.3496 108.277C77.3496 108.734 77.0273 109.01 76.5469 109.01H73.4766V111.271H76.2598C76.7168 111.271 77.0156 111.535 77.0156 111.969C77.0156 112.408 76.7227 112.672 76.2598 112.672H73.4766V115.191C73.4766 115.771 73.1484 116.111 72.5918 116.111ZM79.1777 116.111C78.6211 116.111 78.293 115.771 78.293 115.191V108.465C78.293 107.885 78.6211 107.545 79.1777 107.545H81.7324C83.4668 107.545 84.6621 108.699 84.6621 110.439C84.6621 112.174 83.4258 113.334 81.6445 113.334H80.0625V115.191C80.0625 115.771 79.7344 116.111 79.1777 116.111ZM80.0625 111.951H81.2578C82.2715 111.951 82.8633 111.412 82.8633 110.445C82.8633 109.484 82.2773 108.945 81.2637 108.945H80.0625V111.951ZM88.8047 116.141C87.0586 116.141 85.9395 115.443 85.5996 114.518C85.541 114.365 85.5059 114.201 85.5059 114.043C85.5059 113.574 85.8281 113.264 86.2852 113.264C86.6484 113.264 86.8887 113.404 87.0996 113.779C87.375 114.424 88.0371 114.717 88.8457 114.717C89.7949 114.717 90.4395 114.26 90.4395 113.639C90.4395 113.082 90.041 112.766 88.9805 112.549L88.084 112.373C86.3965 112.039 85.5703 111.23 85.5703 109.971C85.5703 108.424 86.918 107.398 88.7988 107.398C90.3457 107.398 91.5117 108.049 91.8867 109.15C91.9277 109.268 91.9512 109.391 91.9512 109.543C91.9512 109.965 91.6465 110.252 91.1953 110.252C90.7969 110.252 90.5508 110.094 90.3516 109.73C90.0703 109.092 89.5254 108.828 88.7988 108.828C87.9258 108.828 87.3457 109.238 87.3457 109.859C87.3457 110.381 87.75 110.703 88.752 110.902L89.6426 111.084C91.4355 111.441 92.209 112.162 92.209 113.445C92.209 115.098 90.9141 116.141 88.8047 116.141Z" fill="white"/>
<path d="M36.0918 129.633C35.7812 129.633 35.6172 129.416 35.6172 129.117C35.6172 128.977 35.6348 128.842 35.6699 128.719C35.8633 127.975 36.4902 127.547 37.2578 127.547C37.8672 127.547 38.2773 127.828 38.793 128.262C39.209 128.613 39.5254 128.836 39.8301 128.836C40.1934 128.836 40.3926 128.613 40.5039 128.115C40.5566 127.875 40.6914 127.711 40.9668 127.711C41.248 127.711 41.418 127.928 41.418 128.209C41.418 128.367 41.3945 128.52 41.3535 128.66C41.1543 129.334 40.6035 129.773 39.8418 129.773C39.25 129.773 38.8047 129.516 38.125 128.936C37.8672 128.713 37.6035 128.484 37.2637 128.484C36.8535 128.484 36.6426 128.736 36.5312 129.229C36.4785 129.457 36.3438 129.633 36.0918 129.633ZM45.4902 132.105C45.1914 132.105 44.9805 131.883 44.9805 131.561V124.699H44.957L43.375 125.807C43.2578 125.889 43.1465 125.93 43.0176 125.93C42.7715 125.93 42.6016 125.754 42.6016 125.496C42.6016 125.309 42.6719 125.186 42.8945 125.027L44.7051 123.732C45.0332 123.498 45.1738 123.439 45.4141 123.439C45.7773 123.439 46 123.662 46 124.031V131.561C46 131.883 45.7891 132.105 45.4902 132.105ZM50.8105 132.105C50.5117 132.105 50.3008 131.883 50.3008 131.561V124.699H50.2773L48.6953 125.807C48.5781 125.889 48.4668 125.93 48.3379 125.93C48.0918 125.93 47.9219 125.754 47.9219 125.496C47.9219 125.309 47.9922 125.186 48.2148 125.027L50.0254 123.732C50.3535 123.498 50.4941 123.439 50.7344 123.439C51.0977 123.439 51.3203 123.662 51.3203 124.031V131.561C51.3203 131.883 51.1094 132.105 50.8105 132.105ZM56.4297 132.141C54.4551 132.141 53.3125 130.441 53.3125 127.77C53.3125 125.121 54.4668 123.404 56.4297 123.404C58.3926 123.404 59.5352 125.109 59.5352 127.764C59.5352 130.436 58.3984 132.141 56.4297 132.141ZM56.4297 131.221C57.748 131.221 58.4746 129.879 58.4746 127.77C58.4746 125.689 57.7363 124.33 56.4297 124.33C55.123 124.33 54.373 125.701 54.373 127.764C54.373 129.873 55.1055 131.221 56.4297 131.221ZM61.334 130.641C61.6328 130.641 61.8438 130.816 61.8438 131.104C61.8438 131.209 61.832 131.297 61.7969 131.426L61.2578 133.441C61.1934 133.693 61.0586 133.811 60.8125 133.811C60.5781 133.811 60.3965 133.676 60.3965 133.441C60.3965 133.354 60.4082 133.295 60.4141 133.26L60.8301 131.086C60.8945 130.764 61.0586 130.641 61.334 130.641ZM64.0469 132.105C63.7363 132.105 63.5371 131.871 63.5371 131.561V126.316C63.5371 126.012 63.7363 125.801 64.0176 125.801C64.2988 125.801 64.498 126.012 64.498 126.316V126.879H64.5215C64.8086 126.234 65.4297 125.801 66.25 125.801C67.082 125.801 67.6973 126.223 67.9609 126.961H67.9844C68.3242 126.234 69.0391 125.801 69.8945 125.801C71.1016 125.801 71.8809 126.586 71.8809 127.793V131.561C71.8809 131.871 71.6816 132.105 71.3711 132.105C71.0605 132.105 70.8613 131.871 70.8613 131.561V128.027C70.8613 127.195 70.3984 126.703 69.5957 126.703C68.7871 126.703 68.2188 127.301 68.2188 128.127V131.561C68.2188 131.871 68.0195 132.105 67.709 132.105C67.3984 132.105 67.1992 131.871 67.1992 131.561V127.916C67.1992 127.184 66.707 126.703 65.9512 126.703C65.1426 126.703 64.5566 127.336 64.5566 128.18V131.561C64.5566 131.871 64.3574 132.105 64.0469 132.105ZM75.2969 132.105C74.2129 132.105 73.3633 131.619 73.0703 130.857C73.0352 130.77 73.0234 130.693 73.0234 130.617C73.0234 130.348 73.2227 130.195 73.4863 130.195C73.668 130.195 73.8145 130.289 73.9316 130.5C74.2363 131.033 74.5996 131.273 75.3789 131.273C76.1582 131.273 76.6855 130.934 76.6855 130.365C76.6855 129.926 76.4336 129.691 75.748 129.521L74.8164 129.287C73.6387 128.994 73.0703 128.438 73.0703 127.582C73.0703 126.521 74.002 125.801 75.3789 125.801C76.3809 125.801 77.2715 126.363 77.4297 127.096C77.4414 127.154 77.4473 127.201 77.4473 127.248C77.4473 127.488 77.2949 127.646 77.0488 127.646C76.8496 127.646 76.709 127.582 76.5977 127.371C76.334 126.861 75.9414 126.639 75.3203 126.639C74.5879 126.639 74.0781 127.008 74.0781 127.529C74.0781 127.951 74.4062 128.244 75.0742 128.408L75.9824 128.631C77.2539 128.941 77.7227 129.387 77.7227 130.283C77.7227 131.373 76.7441 132.105 75.2969 132.105Z" fill="white"/>
<path d="M48.5 143H64.5L58.1354 149.564C57.3662 150.357 56.0995 150.376 55.3066 149.606L48.5 143Z" fill="#F04438"/>
<circle cx="241" cy="66" r="5" fill="white" stroke="#7F56D9" stroke-width="6"/>
<path opacity="0.4" d="M3.79688 12.1406C2.05078 12.1406 0.931641 11.4434 0.591797 10.5176C0.533203 10.3652 0.498047 10.2012 0.498047 10.043C0.498047 9.57422 0.820312 9.26367 1.27734 9.26367C1.64062 9.26367 1.88086 9.4043 2.0918 9.7793C2.36719 10.4238 3.0293 10.7168 3.83789 10.7168C4.78711 10.7168 5.43164 10.2598 5.43164 9.63867C5.43164 9.08203 5.0332 8.76562 3.97266 8.54883L3.07617 8.37305C1.38867 8.03906 0.5625 7.23047 0.5625 5.9707C0.5625 4.42383 1.91016 3.39844 3.79102 3.39844C5.33789 3.39844 6.50391 4.04883 6.87891 5.15039C6.91992 5.26758 6.94336 5.39062 6.94336 5.54297C6.94336 5.96484 6.63867 6.25195 6.1875 6.25195C5.78906 6.25195 5.54297 6.09375 5.34375 5.73047C5.0625 5.0918 4.51758 4.82812 3.79102 4.82812C2.91797 4.82812 2.33789 5.23828 2.33789 5.85938C2.33789 6.38086 2.74219 6.70312 3.74414 6.90234L4.63477 7.08398C6.42773 7.44141 7.20117 8.16211 7.20117 9.44531C7.20117 11.0977 5.90625 12.1406 3.79688 12.1406ZM9.07617 12.1113C8.57812 12.1113 8.28516 11.8066 8.28516 11.2852V4.57031C8.28516 3.85547 8.70703 3.42773 9.42773 3.42773C10.043 3.42773 10.3828 3.68555 10.6406 4.3418L12.7383 9.53906H12.7852L14.877 4.3418C15.1348 3.69141 15.4805 3.42773 16.1016 3.42773C16.8164 3.42773 17.2383 3.84961 17.2383 4.57031V11.2852C17.2383 11.8066 16.9453 12.1113 16.4473 12.1113C15.9492 12.1113 15.6621 11.8066 15.6621 11.2852V6.29297H15.6152L13.5234 11.4082C13.3711 11.7832 13.1367 11.9473 12.7676 11.9473C12.3926 11.9473 12.1465 11.7773 12 11.4141L9.9082 6.29297H9.86133V11.2852C9.86133 11.8066 9.57422 12.1113 9.07617 12.1113ZM22.459 12.1406C19.9512 12.1406 18.3809 10.4648 18.3809 7.77539C18.3809 5.08008 19.9512 3.39844 22.459 3.39844C24.9609 3.39844 26.5371 5.08008 26.5371 7.77539C26.5371 10.4648 24.9609 12.1406 22.459 12.1406ZM22.459 10.6641C23.8418 10.6641 24.7266 9.54492 24.7266 7.77539C24.7266 6 23.8418 4.875 22.459 4.875C21.0762 4.875 20.1855 6 20.1855 7.77539C20.1855 9.54492 21.0703 10.6641 22.459 10.6641ZM31.4941 12.1406C28.9863 12.1406 27.416 10.4648 27.416 7.77539C27.416 5.08008 28.9863 3.39844 31.4941 3.39844C33.9961 3.39844 35.5723 5.08008 35.5723 7.77539C35.5723 10.4648 33.9961 12.1406 31.4941 12.1406ZM31.4941 10.6641C32.877 10.6641 33.7617 9.54492 33.7617 7.77539C33.7617 6 32.877 4.875 31.4941 4.875C30.1113 4.875 29.2207 6 29.2207 7.77539C29.2207 9.54492 30.1055 10.6641 31.4941 10.6641ZM39.1523 12.1113C38.5957 12.1113 38.2676 11.7715 38.2676 11.1914V5.00977H36.5215C36.041 5.00977 35.7188 4.73438 35.7188 4.27734C35.7188 3.82031 36.0352 3.54492 36.5215 3.54492H41.7891C42.2695 3.54492 42.5859 3.82031 42.5859 4.27734C42.5859 4.73438 42.2637 5.00977 41.7891 5.00977H40.0371V11.1914C40.0371 11.7715 39.709 12.1113 39.1523 12.1113ZM44.3496 12.1113C43.793 12.1113 43.4648 11.7715 43.4648 11.1914V4.35352C43.4648 3.76758 43.793 3.42773 44.3496 3.42773C44.9062 3.42773 45.2344 3.76758 45.2344 4.35352V6.97852H49.043V4.35352C49.043 3.76758 49.3711 3.42773 49.9277 3.42773C50.4844 3.42773 50.8125 3.76758 50.8125 4.35352V11.1914C50.8125 11.7715 50.4844 12.1113 49.9277 12.1113C49.3711 12.1113 49.043 11.7715 49.043 11.1914V8.4375H45.2344V11.1914C45.2344 11.7715 44.9062 12.1113 44.3496 12.1113Z" fill="#667085"/>
<path d="M57 163V199.5" stroke="#F04438" stroke-width="4" stroke-linecap="round" stroke-dasharray="10 10"/>
<circle cx="57" cy="163" r="5" fill="white" stroke="#F04438" stroke-width="6"/>
<defs>
<linearGradient id="paint0_linear_342_11965" x1="56.5" y1="66.5" x2="183.713" y2="242.605" gradientUnits="userSpaceOnUse">
<stop stop-color="#43CBFF"/>
<stop offset="1" stop-color="#9708CC"/>
</linearGradient>
<linearGradient id="paint1_linear_342_11965" x1="56" y1="53" x2="144.473" y2="231.597" gradientUnits="userSpaceOnUse">
<stop stop-color="#43CBFF"/>
<stop offset="1" stop-color="#9708CC"/>
</linearGradient>
</defs>
</svg>
