<svg width="16" height="16" viewBox="0 0 16 16" fill="none" xmlns="http://www.w3.org/2000/svg">
<path d="M6.6665 1.33333H9.33317" stroke="#7F56D9" stroke-width="1.5" stroke-linecap="round" stroke-linejoin="round"/>
<path d="M11.7712 4.89534C13.8538 6.97801 13.8538 10.3553 11.7712 12.438C9.6885 14.5207 6.31117 14.5207 4.2285 12.438C2.14584 10.3553 2.14584 6.97801 4.2285 4.89534C6.31117 2.81268 9.6885 2.81268 11.7712 4.89534" stroke="#7F56D9" stroke-width="1.5" stroke-linecap="round" stroke-linejoin="round"/>
<path d="M7.99984 3.33334V1.33334" stroke="#7F56D9" stroke-width="1.5" stroke-linecap="round" stroke-linejoin="round"/>
<path d="M8.004 7.66666C7.448 7.66666 7 8.11466 7 8.66666C7 9.21866 7.448 9.66666 8 9.66666C8.552 9.66666 9 9.21866 9 8.66666C9.004 8.11466 8.556 7.66666 8.004 7.66666" stroke="#7F56D9" stroke-width="1.5" stroke-linecap="round" stroke-linejoin="round"/>
<path d="M8.7085 7.95799L9.99983 6.66666" stroke="#7F56D9" stroke-width="1.5" stroke-linecap="round" stroke-linejoin="round"/>
<path d="M13.1063 3.56L11.7729 4.89333" stroke="#7F56D9" stroke-width="1.5" stroke-linecap="round" stroke-linejoin="round"/>
<path d="M12.4399 2.89334L13.7733 4.22667" stroke="#7F56D9" stroke-width="1.5" stroke-linecap="round" stroke-linejoin="round"/>
<path d="M2.89502 3.56201L4.22835 4.89535" stroke="#7F56D9" stroke-width="1.5" stroke-linecap="round" stroke-linejoin="round"/>
<path d="M2.22852 4.22866L3.56185 2.89532" stroke="#7F56D9" stroke-width="1.5" stroke-linecap="round" stroke-linejoin="round"/>
</svg>
