<svg preserveAspectRatio="none" width="100%" height="100%" overflow="visible" style="display: block;" viewBox="0 0 131.125 53.5704" fill="none" xmlns="http://www.w3.org/2000/svg">
<path id="Vector" d="M0.131753 18.1071C-0.261741 19.1392 0.255953 20.2949 1.28806 20.6884L18.1071 27.1008C19.1392 27.4943 20.2949 26.9766 20.6884 25.9445C21.0819 24.9124 20.5642 23.7567 19.5321 23.3632L4.58181 17.6633L10.2817 2.71303C10.6752 1.68092 10.1575 0.525248 9.12539 0.131753C8.09328 -0.261742 6.93761 0.255953 6.54411 1.28806L0.131753 18.1071ZM127.851 53.1118C128.702 53.8156 129.963 53.696 130.667 52.8446C131.371 51.9933 131.251 50.7326 130.4 50.0289L129.125 51.5703L127.851 53.1118ZM2.00054 18.8196L2.81817 20.6449C33.2184 7.02683 59.3892 21.1489 72.5465 34.2309C75.8248 37.4904 78.2277 40.6241 79.656 43.1584C80.3729 44.4305 80.808 45.4879 81.0078 46.2899C81.2232 47.1547 81.0937 47.4261 81.1164 47.3802C81.2396 47.1312 81.4647 47.1994 81.1251 47.2075C80.683 47.218 79.8267 47.0598 78.4432 46.4464C75.7139 45.2364 71.6245 42.5721 65.9978 37.857L64.7132 39.3899L63.4286 40.9229C69.1528 45.7196 73.5812 48.6663 76.822 50.1032C78.4236 50.8132 79.9155 51.2374 81.2203 51.2063C82.6276 51.1728 83.9984 50.5754 84.7016 49.1539C85.3044 47.9355 85.1893 46.5275 84.8892 45.3231C84.5736 44.0559 83.9634 42.6542 83.1407 41.1945C81.4897 38.2651 78.8364 34.8441 75.3668 31.3943C61.5326 17.6393 33.6454 2.45256 1.18291 16.9944L2.00054 18.8196ZM64.7132 39.3899L65.9978 37.857C60.3786 33.1482 56.3967 29.1726 53.8017 25.918C51.1528 22.5958 50.1523 20.2735 50.0502 18.8433C50.004 18.1954 50.146 17.8076 50.3303 17.5455C50.528 17.2644 50.9084 16.9404 51.6419 16.6706C53.1767 16.106 55.7609 15.9632 59.418 16.5075C73.9759 18.674 101.098 30.9954 127.851 53.1118L129.125 51.5703L130.4 50.0289C103.338 27.6569 75.552 14.8645 60.0068 12.551C56.1381 11.9753 52.7467 12.0021 50.261 12.9165C48.9842 13.3861 47.843 14.1289 47.0585 15.2444C46.2606 16.3789 45.9597 17.7174 46.0604 19.1281C46.2522 21.8151 47.9053 24.939 50.6742 28.4117C53.4969 31.9519 57.6969 36.1198 63.4286 40.9229L64.7132 39.3899Z" fill="var(--stroke-0, #E0D2FF)"/>
</svg>
