<svg preserveAspectRatio="none" width="100%" height="100%" overflow="visible" style="display: block;" viewBox="0 0 8.00021 8.00063" fill="none" xmlns="http://www.w3.org/2000/svg">
<g id="Group">
<path id="Vector" d="M8.00017 4.01489e-05C7.99972 4.01489e-05 7.99923 8.83911e-05 7.99878 8.83911e-05L8.00017 4.01489e-05Z" fill="var(--fill-0, #F0F0F0)"/>
<path id="Vector_2" d="M7.97876 8.00039H8.00021C8.00021 7.99313 8.00021 7.98618 8.00021 7.97895C7.99307 7.98612 7.98593 7.99325 7.97876 8.00039Z" fill="var(--fill-0, #F0F0F0)"/>
<path id="Vector_3" d="M8.00008 4.17457C8.00008 2.76691 8.00008 1.8445 8.00008 0.000660009H7.99873C3.58108 0.00137876 8.03755e-05 3.58278 8.03755e-05 8.00063H4.17398V5.65025L6.52436 8.00063H7.9787C7.98586 7.9935 7.99298 7.98638 8.00011 7.97922C8.00011 7.44025 8.00011 6.95935 8.00011 6.52497L5.6497 4.17457H8.00008Z" fill="var(--fill-0, #F0F0F0)"/>
</g>
</svg>
