<svg width="16" height="16" viewBox="0 0 16 16" fill="none" xmlns="http://www.w3.org/2000/svg">
<g clip-path="url(#clip0_342_12095)">
<path d="M8 16C12.4183 16 16 12.4183 16 8C16 3.58172 12.4183 0 8 0C3.58172 0 0 3.58172 0 8C0 12.4183 3.58172 16 8 16Z" fill="#F0F0F0"/>
<path d="M8.00013 -0.000610352C4.82844 -0.000610352 2.08795 1.84517 0.793945 4.52114H15.2063C13.9123 1.84517 11.1718 -0.000610352 8.00013 -0.000610352Z" fill="#338AF3"/>
<path d="M8.00013 15.9992C11.1718 15.9992 13.9123 14.1534 15.2063 11.4774H0.793945C2.08795 14.1534 4.82844 15.9992 8.00013 15.9992Z" fill="#338AF3"/>
<path d="M10.3906 8.00006L9.41356 8.45965L9.93384 9.40587L8.8729 9.2029L8.73846 10.2746L7.99949 9.4864L7.26049 10.2746L7.12609 9.2029L6.06515 9.40583L6.5854 8.45962L5.6084 8.00006L6.58543 7.54046L6.06515 6.59428L7.12606 6.79721L7.26052 5.72546L7.99949 6.51371L8.73849 5.72546L8.8729 6.79721L9.93387 6.59428L9.41359 7.54049L10.3906 8.00006Z" fill="#FFDA44"/>
</g>
<defs>
<clipPath id="clip0_342_12095">
<rect width="16" height="16" fill="white"/>
</clipPath>
</defs>
</svg>
