<svg preserveAspectRatio="none" width="100%" height="100%" overflow="visible" style="display: block;" viewBox="0 0 16 16" fill="none" xmlns="http://www.w3.org/2000/svg">
<path id="Vector" d="M15.9323 6.95653H9.04353H9.0435V0.0677188C8.70191 0.02325 8.35366 0 8 0C7.64634 0 7.29809 0.02325 6.95653 0.0677188V6.95647V6.9565H0.0677188C0.02325 7.29809 0 7.64628 0 8C0 8.35372 0.02325 8.70191 0.0677188 9.04347H6.95647H6.9565V15.9323C7.29809 15.9768 7.64634 16 8 16C8.35366 16 8.70191 15.9768 9.04347 15.9323V9.04353V9.0435H15.9323C15.9768 8.70191 16 8.35372 16 8C16 7.64628 15.9768 7.29809 15.9323 6.95653Z" fill="var(--fill-0, #D80027)"/>
</svg>
