<svg width="16" height="16" viewBox="0 0 16 16" fill="none" xmlns="http://www.w3.org/2000/svg">
<g clip-path="url(#clip0_54_3201)">
<path d="M8 16C12.4183 16 16 12.4183 16 8C16 3.58172 12.4183 0 8 0C3.58172 0 0 3.58172 0 8C0 12.4183 3.58172 16 8 16Z" fill="#F0F0F0"/>
<path d="M6.26129 6.95653H15.9327C15.4213 3.03131 12.065 0 8.00039 0C7.40304 0 6.82126 0.0660313 6.26126 0.190156V6.95653H6.26129Z" fill="#D80027"/>
<path d="M4.17431 6.95693V0.973145C1.97765 2.17171 0.405084 4.37018 0.0681152 6.95696H4.17431V6.95693Z" fill="#D80027"/>
<path d="M4.17397 9.04346H0.0678101C0.404779 11.6302 1.97734 13.8287 4.174 15.0272L4.17397 9.04346Z" fill="#D80027"/>
<path d="M6.26126 9.04349V15.8098C6.82126 15.934 7.40304 16 8.00039 16C12.065 16 15.4213 12.9687 15.9327 9.04346H6.26126V9.04349Z" fill="#D80027"/>
</g>
<defs>
<clipPath id="clip0_54_3201">
<rect width="16" height="16" fill="white"/>
</clipPath>
</defs>
</svg>
