<svg width="16" height="16" viewBox="0 0 16 16" fill="none" xmlns="http://www.w3.org/2000/svg">
<g clip-path="url(#clip0_54_3313)">
<path d="M8 16C12.4183 16 16 12.4183 16 8C16 3.58172 12.4183 0 8 0C3.58172 0 0 3.58172 0 8C0 12.4183 3.58172 16 8 16Z" fill="#F0F0F0"/>
<path d="M10.7827 7.99988C10.7827 8.69554 9.5369 10.4347 8.00012 10.4347C6.46334 10.4347 5.21753 8.69554 5.21753 7.99988C5.21753 6.46307 6.46334 5.21729 8.00012 5.21729C9.5369 5.21729 10.7827 6.46307 10.7827 7.99988Z" fill="#D80027"/>
<path d="M10.7827 7.99951C10.7827 9.53632 9.5369 10.7821 8.00012 10.7821C6.46334 10.7821 5.21753 9.53632 5.21753 7.99951" fill="#0052B4"/>
<path d="M11.689 9.72163L10.9512 10.4595L11.4431 10.9514L12.1809 10.2135L11.689 9.72163Z" fill="black"/>
<path d="M10.459 10.9511L9.72113 11.689L10.213 12.1809L10.9509 11.443L10.459 10.9511Z" fill="black"/>
<path d="M13.1647 11.1962L12.4269 11.9341L12.9188 12.426L13.6566 11.6881L13.1647 11.1962Z" fill="black"/>
<path d="M11.9353 12.4272L11.1975 13.165L11.6894 13.6569L12.4272 12.9191L11.9353 12.4272Z" fill="black"/>
<path d="M12.4271 10.4599L11.6892 11.1978L12.1811 11.6896L12.919 10.9518L12.4271 10.4599Z" fill="black"/>
<path d="M11.1973 11.6894L10.4595 12.4272L10.9514 12.9191L11.6892 12.1813L11.1973 11.6894Z" fill="black"/>
<path d="M10.4596 3.57198L12.4271 5.53955L12.919 5.04765L10.9515 3.08008L10.4596 3.57198Z" fill="black"/>
<path d="M9.72185 4.31099L10.4597 5.04883L10.9516 4.55695L10.2137 3.81911L9.72185 4.31099Z" fill="black"/>
<path d="M10.9516 5.54L11.6894 6.27783L12.1813 5.78596L11.4435 5.04812L10.9516 5.54Z" fill="black"/>
<path d="M11.1967 2.83492L11.9346 3.57275L12.4265 3.08085L11.6886 2.34302L11.1967 2.83492Z" fill="black"/>
<path d="M12.4273 4.0649L13.1651 4.80273L13.657 4.31084L12.9192 3.573L12.4273 4.0649Z" fill="black"/>
<path d="M4.80229 13.1653L2.83472 11.1978L2.34282 11.6897L4.31039 13.6572L4.80229 13.1653Z" fill="black"/>
<path d="M5.54045 12.4268L4.80261 11.689L4.31074 12.1808L5.04857 12.9187L5.54045 12.4268Z" fill="black"/>
<path d="M4.31059 11.1973L3.57275 10.4595L3.08086 10.9514L3.81869 11.6892L4.31059 11.1973Z" fill="black"/>
<path d="M6.27833 11.6893L4.31076 9.72168L3.81886 10.2136L5.78643 12.1811L6.27833 11.6893Z" fill="black"/>
<path d="M2.8351 4.80302L4.80267 2.83545L4.31077 2.34355L2.3432 4.31112L2.8351 4.80302Z" fill="black"/>
<path d="M3.5724 5.53984L5.53998 3.57227L5.04808 3.08037L3.08051 5.04794L3.5724 5.53984Z" fill="black"/>
<path d="M4.3109 6.27812L6.27847 4.31055L5.7866 3.81867L3.81902 5.78624L4.3109 6.27812Z" fill="black"/>
</g>
<defs>
<clipPath id="clip0_54_3313">
<rect width="16" height="16" fill="white"/>
</clipPath>
</defs>
</svg>
