<svg width="16" height="16" viewBox="0 0 16 16" fill="none" xmlns="http://www.w3.org/2000/svg">
<g clip-path="url(#clip0_54_3178)">
<path d="M16 8C16 12.4183 12.4183 16 8 16C3.58175 16 0 12.4183 0 8C0 8.00187 8 0.00090625 8 0C12.4183 0 16 3.58175 16 8Z" fill="#0052B4"/>
<path d="M7.97852 8.00045H7.99996C7.99996 7.99318 7.99996 7.98624 7.99996 7.979C7.99283 7.98617 7.98569 7.99331 7.97852 8.00045Z" fill="#F0F0F0"/>
<path d="M7.99984 4.17439C7.99984 2.76674 7.99984 1.84433 7.99984 0.000488281H7.99849C3.58084 0.00120703 -0.000160217 3.58261 -0.000160217 8.00046H4.17374V5.65008L6.52412 8.00046H7.97846C7.98562 7.99333 7.99274 7.98621 7.99987 7.97905C7.99987 7.44008 7.99987 6.95917 7.99987 6.5248L5.64946 4.17439H7.99984Z" fill="#F0F0F0"/>
<path d="M4.04742 1.04395C2.7962 1.75641 1.75601 2.7966 1.04354 4.04782V8.00048H3.13051V3.13095V3.13091H8.00008C8.00008 2.4727 8.00008 1.84563 8.00008 1.04395H4.04742V1.04395Z" fill="#D80027"/>
<path d="M8.00026 7.01658L5.15798 4.17433H4.1742C4.1742 4.1743 4.1742 4.17433 4.1742 4.17433L8.00023 8.00036H8.00026C8.00026 8.00036 8.00026 7.32208 8.00026 7.01658Z" fill="#D80027"/>
<path d="M4.82503 9.39111L5.2641 10.3092L6.25557 10.08L5.81157 10.9957L6.60888 11.628L5.61616 11.8517L5.61894 12.8694L4.82503 12.2327L4.03116 12.8694L4.03394 11.8517L3.04119 11.628L3.83854 10.9957L3.39447 10.08L4.386 10.3092L4.82503 9.39111Z" fill="#F0F0F0"/>
<path d="M11.9781 11.1304L12.1976 11.5894L12.6933 11.4748L12.4713 11.9327L12.87 12.2488L12.3736 12.3607L12.375 12.8695L11.9781 12.5512L11.5811 12.8695L11.5825 12.3607L11.0862 12.2488L11.4848 11.9327L11.2628 11.4748L11.7585 11.5894L11.9781 11.1304Z" fill="#F0F0F0"/>
<path d="M9.93561 6.26123L10.1551 6.72029L10.6509 6.60567L10.4289 7.06351L10.8275 7.37967L10.3312 7.49154L10.3325 8.00036L9.93561 7.68201L9.53867 8.00036L9.54002 7.49154L9.04367 7.37967L9.44233 7.06351L9.22033 6.60567L9.71608 6.72029L9.93561 6.26123Z" fill="#F0F0F0"/>
<path d="M11.9781 3.47852L12.1976 3.93758L12.6933 3.82298L12.4713 4.28083L12.87 4.59695L12.3736 4.70886L12.375 5.21767L11.9781 4.89933L11.5811 5.21767L11.5825 4.70886L11.0862 4.59695L11.4848 4.28083L11.2628 3.82298L11.7585 3.93758L11.9781 3.47852Z" fill="#F0F0F0"/>
<path d="M13.7615 5.56543L13.981 6.02449L14.4767 5.90987L14.2547 6.36771L14.6534 6.68387L14.157 6.79577L14.1584 7.30455L13.7615 6.98624L13.3645 7.30455L13.3659 6.79577L12.8695 6.68387L13.2682 6.36771L13.0462 5.90987L13.5419 6.02449L13.7615 5.56543Z" fill="#F0F0F0"/>
<path d="M12.4861 8.00049L12.6588 8.53193H13.2176L12.7655 8.86039L12.9382 9.3918L12.4861 9.06336L12.0341 9.3918L12.2067 8.86039L11.7547 8.53193H12.3135L12.4861 8.00049Z" fill="#F0F0F0"/>
</g>
<defs>
<clipPath id="clip0_54_3178">
<rect width="16" height="16" fill="white"/>
</clipPath>
</defs>
</svg>
