<svg width="32" height="32" viewBox="0 0 32 32" fill="none" xmlns="http://www.w3.org/2000/svg">
<mask id="mask0_54_3140" style="mask-type:luminance" maskUnits="userSpaceOnUse" x="0" y="0" width="32" height="32">
<path d="M32 0H0V32H32V0Z" fill="white"/>
</mask>
<g mask="url(#mask0_54_3140)">
<path d="M2.29228 7.1198C5.3472 4.06488 10.2999 4.06488 13.3548 7.1198L13.4867 7.25172C14.8749 8.63994 17.1257 8.63994 18.5139 7.25172L18.6458 7.1198C21.7007 4.06506 26.6534 4.06497 29.7083 7.1198C32.7632 10.1747 32.7631 15.1274 29.7083 18.1823L18.5139 29.3767C17.1257 30.765 14.8749 30.765 13.4867 29.3767L2.29228 18.1823C-0.762636 15.1274 -0.762623 10.1747 2.29228 7.1198Z" fill="#67E3F9"/>
<mask id="mask1_54_3140" style="mask-type:alpha" maskUnits="userSpaceOnUse" x="-1" y="4" width="33" height="27">
<path d="M2.2906 7.11827C5.3455 4.06344 10.2992 4.06345 13.3541 7.11827L13.4865 7.25066C14.8745 8.63869 17.1249 8.6389 18.5132 7.25112L18.6451 7.11924C21.7 4.0648 26.6528 4.0647 29.7076 7.11924C32.7625 10.1742 32.7625 15.1278 29.7076 18.1827L22.8223 25.068C22.8221 25.0683 22.8225 25.0683 22.8223 25.068C22.822 25.0677 22.8206 25.0677 22.8204 25.068L18.5131 29.3759C17.1249 30.7643 14.8741 30.7644 13.4858 29.3762L2.2906 18.1818C-0.764237 15.1268 -0.764294 10.1732 2.2906 7.11827Z" fill="#7BBCF5"/>
</mask>
<g mask="url(#mask1_54_3140)">
<path d="M10.9999 19.5177C10.9999 20.1754 11.2612 20.8063 11.7263 21.2714L13.4065 22.9516C13.7876 23.3327 13.7877 23.9506 13.4066 24.3319L13.3695 24.369C12.7685 24.9703 13.1943 25.9981 14.0445 25.9981C14.5716 25.9981 14.9989 26.4254 14.9989 26.9525V27.4981C14.9989 28.3265 14.3273 28.9981 13.4989 28.9981H8.50085C7.67243 28.9981 7.00085 28.3263 7.00085 27.4978C7.00085 26.6697 6.3295 25.9981 5.50134 25.9981C4.67319 25.9981 4.00183 25.3267 4.00183 24.4986V19.4801C4.00183 18.1104 5.11219 17 6.48188 17H8.51983C9.88952 17 10.9999 18.1104 10.9999 19.4801V19.5177ZM29.3446 11.0479C29.3446 11.5743 28.9179 12.001 28.3915 12.001C27.8651 12.001 27.4384 12.4277 27.4384 12.9541V16.8145C27.4384 17.816 26.6264 18.628 25.6249 18.628C24.6233 18.628 23.8114 19.4399 23.8114 20.4414V20.8599C23.8114 22.0926 22.8121 23.0918 21.5795 23.0918H20.9897C19.62 23.0918 18.5096 21.9815 18.5096 20.6118V16.6744C18.5096 15.9039 17.8851 15.2793 17.1146 15.2793C16.3442 15.2793 15.7196 14.6548 15.7196 13.8843V8.16504C15.7196 7.16348 16.5315 6.35156 17.5331 6.35156H17.6722C18.5969 6.35156 19.3466 5.60194 19.3466 4.67724C19.3466 3.75255 20.0962 3.00293 21.0209 3.00293H26.8646C28.2342 3.00293 29.3446 4.11329 29.3446 5.48298V11.0479ZM11.0242 6.18696C11.8737 6.5443 12.2727 7.52266 11.9153 8.37219L11.7359 8.79879C11.6352 9.03813 11.6523 9.3108 11.7821 9.53568C12.0113 9.93286 11.8751 10.4407 11.4779 10.6698L11.1371 10.8664C10.9055 11 10.7241 11.2057 10.6205 11.4522L10.1095 12.6682C9.75235 13.518 8.77379 13.9173 7.92408 13.5598L7.76274 13.492C7.00262 13.1722 6.64544 12.297 6.96483 11.5367C7.14565 11.1063 7.11481 10.6161 6.88148 10.2117L6.78958 10.0525C6.27516 9.16094 6.58055 8.02125 7.47179 7.50642L8.7892 6.74541C8.95187 6.65144 9.07935 6.50687 9.15222 6.33371C9.33668 5.89536 9.84155 5.68951 10.2799 5.87391L11.0242 6.18696Z" fill="url(#paint0_linear_54_3140)"/>
<path d="M10.9999 19.5177C10.9999 20.1754 11.2612 20.8063 11.7263 21.2714L13.4065 22.9516C13.7876 23.3327 13.7877 23.9506 13.4066 24.3319L13.3695 24.369C12.7685 24.9703 13.1943 25.9981 14.0445 25.9981C14.5716 25.9981 14.9989 26.4254 14.9989 26.9525V27.4981C14.9989 28.3265 14.3273 28.9981 13.4989 28.9981H8.50085C7.67243 28.9981 7.00085 28.3263 7.00085 27.4978C7.00085 26.6697 6.3295 25.9981 5.50134 25.9981C4.67319 25.9981 4.00183 25.3267 4.00183 24.4986V19.4801C4.00183 18.1104 5.11219 17 6.48188 17H8.51983C9.88952 17 10.9999 18.1104 10.9999 19.4801V19.5177ZM29.3446 11.0479C29.3446 11.5743 28.9179 12.001 28.3915 12.001C27.8651 12.001 27.4384 12.4277 27.4384 12.9541V16.8145C27.4384 17.816 26.6264 18.628 25.6249 18.628C24.6233 18.628 23.8114 19.4399 23.8114 20.4414V20.8599C23.8114 22.0926 22.8121 23.0918 21.5795 23.0918H20.9897C19.62 23.0918 18.5096 21.9815 18.5096 20.6118V16.6744C18.5096 15.9039 17.8851 15.2793 17.1146 15.2793C16.3442 15.2793 15.7196 14.6548 15.7196 13.8843V8.16504C15.7196 7.16348 16.5315 6.35156 17.5331 6.35156H17.6722C18.5969 6.35156 19.3466 5.60194 19.3466 4.67724C19.3466 3.75255 20.0962 3.00293 21.0209 3.00293H26.8646C28.2342 3.00293 29.3446 4.11329 29.3446 5.48298V11.0479ZM11.0242 6.18696C11.8737 6.5443 12.2727 7.52266 11.9153 8.37219L11.7359 8.79879C11.6352 9.03813 11.6523 9.3108 11.7821 9.53568C12.0113 9.93286 11.8751 10.4407 11.4779 10.6698L11.1371 10.8664C10.9055 11 10.7241 11.2057 10.6205 11.4522L10.1095 12.6682C9.75235 13.518 8.77379 13.9173 7.92408 13.5598L7.76274 13.492C7.00262 13.1722 6.64544 12.297 6.96483 11.5367C7.14565 11.1063 7.11481 10.6161 6.88148 10.2117L6.78958 10.0525C6.27516 9.16094 6.58055 8.02125 7.47179 7.50642L8.7892 6.74541C8.95187 6.65144 9.07935 6.50687 9.15222 6.33371C9.33668 5.89536 9.84155 5.68951 10.2799 5.87391L11.0242 6.18696Z" fill="#17B26A"/>
</g>
</g>
<defs>
<linearGradient id="paint0_linear_54_3140" x1="15.9991" y1="6.37998" x2="15.9991" y2="25.8764" gradientUnits="userSpaceOnUse">
<stop stop-color="#52982F"/>
<stop offset="1" stop-color="#5AA03D"/>
</linearGradient>
</defs>
</svg>
