<svg preserveAspectRatio="none" width="100%" height="100%" overflow="visible" style="display: block;" viewBox="0 0 73.9753 46.1205" fill="none" xmlns="http://www.w3.org/2000/svg">
<path id="Vector" d="M0.0535305 14.1262C-0.165048 14.9253 0.305534 15.7503 1.10461 15.9688L14.1262 19.5308C14.9253 19.7494 15.7503 19.2788 15.9688 18.4797C16.1874 17.6806 15.7168 16.8557 14.9178 16.6371L3.34299 13.4709L6.50917 1.89615C6.72774 1.09708 6.25716 0.272109 5.45809 0.0535305C4.65902 -0.165048 3.83405 0.305534 3.61547 1.10461L0.0535305 14.1262ZM70.9753 44.6306C70.9809 45.4591 71.657 46.1261 72.4854 46.1205C73.3138 46.1149 73.9808 45.4389 73.9752 44.6104L72.4753 44.6205L70.9753 44.6306ZM1.50038 14.522L2.2436 15.8249C22.5526 4.24014 38.79 2.20181 48.1748 4.73847C52.8694 6.00738 55.6312 8.3439 56.624 10.9571C57.5985 13.5225 57.0504 16.8498 54.0276 20.5595L55.1904 21.507L56.3533 22.4545C59.8052 18.2181 60.9047 13.7777 59.4284 9.89167C57.9702 6.05338 54.1826 3.25468 48.9576 1.84239C38.5032 -0.983362 21.4209 1.43195 0.757155 13.2191L1.50038 14.522ZM55.1904 21.507L54.0276 20.5595C52.3552 22.612 51.2752 24.4037 50.7783 26.0072C50.2651 27.6636 50.3638 29.1708 51.1141 30.474C51.8254 31.7093 53.0105 32.5606 54.253 33.2035C55.5065 33.852 56.9889 34.373 58.4753 34.8563C61.5527 35.857 64.6835 36.7245 67.1243 38.2283C69.4483 39.66 70.9546 41.5524 70.9753 44.6306L72.4753 44.6205L73.9752 44.6104C73.9457 40.2307 71.6476 37.4913 68.6979 35.6741C65.8651 33.9288 62.253 32.9301 59.403 32.0034C57.9258 31.523 56.6485 31.0651 55.6316 30.539C54.6039 30.0072 54.0083 29.4882 53.714 28.977C53.4587 28.5337 53.3269 27.9182 53.6439 26.8952C53.9773 25.8193 54.7884 24.3751 56.3533 22.4545L55.1904 21.507Z" fill="var(--stroke-0, #35CD60)"/>
</svg>
