<svg preserveAspectRatio="none" width="100%" height="100%" overflow="visible" style="display: block;" viewBox="0 0 32 32" fill="none" xmlns="http://www.w3.org/2000/svg">
<g id="Smart">
<path id="Vector" d="M16 6.66667C16.0016 6.13337 15.8965 5.60515 15.6909 5.11307C15.4854 4.62098 15.1835 4.17497 14.803 3.80126C14.4226 3.42755 13.9712 3.1337 13.4755 2.93697C12.9799 2.74025 12.4498 2.64464 11.9167 2.65575C11.3835 2.66686 10.8579 2.78448 10.3709 3.00169C9.88379 3.21889 9.44509 3.5313 9.08054 3.92054C8.71598 4.30978 8.43295 4.76798 8.24807 5.2682C8.06319 5.76843 7.98021 6.30057 8.004 6.83333C7.22027 7.03485 6.49267 7.41207 5.87631 7.93642C5.25995 8.46077 4.77099 9.1185 4.44646 9.8598C4.12193 10.6011 3.97035 11.4065 4.00319 12.2151C4.03602 13.0236 4.25243 13.8141 4.636 14.5267C3.96157 15.0746 3.43124 15.779 3.09112 16.5786C2.751 17.3782 2.61141 18.2488 2.68449 19.1147C2.75756 19.9805 3.04109 20.8154 3.51041 21.5467C3.97973 22.278 4.62062 22.8835 5.37733 23.3107C5.28389 24.0336 5.33965 24.7681 5.54118 25.4687C5.74271 26.1693 6.08573 26.8211 6.54905 27.3839C7.01236 27.9468 7.58615 28.4086 8.23496 28.741C8.88377 29.0734 9.59384 29.2692 10.3213 29.3164C11.0488 29.3637 11.7782 29.2612 12.4645 29.0155C13.1508 28.7697 13.7795 28.3859 14.3117 27.8877C14.8439 27.3895 15.2682 26.7874 15.5586 26.1188C15.849 25.4501 15.9992 24.729 16 24V6.66667Z" stroke="var(--stroke-0, #079455)" stroke-width="3" stroke-linecap="round" stroke-linejoin="round"/>
<path id="Vector_2" d="M12 17.3333C13.1194 16.9395 14.0969 16.2227 14.8089 15.2733C15.5209 14.324 15.9354 13.1849 16 12" stroke="var(--stroke-0, #079455)" stroke-width="3" stroke-linecap="round" stroke-linejoin="round"/>
<path id="Vector_3" d="M8.004 6.83333C8.03037 7.47831 8.21244 8.10733 8.53467 8.66667" stroke="var(--stroke-0, #079455)" stroke-width="3" stroke-linecap="round" stroke-linejoin="round"/>
<path id="Vector_4" d="M4.636 14.528C4.87992 14.3293 5.14094 14.1527 5.416 14" stroke="var(--stroke-0, #079455)" stroke-width="3" stroke-linecap="round" stroke-linejoin="round"/>
<path id="Vector_5" d="M8 24C7.08111 24.0004 6.17769 23.7634 5.37733 23.312" stroke="var(--stroke-0, #079455)" stroke-width="3" stroke-linecap="round" stroke-linejoin="round"/>
<path id="Vector_6" d="M16 17.3333H21.3333" stroke="var(--stroke-0, #079455)" stroke-width="3" stroke-linecap="round" stroke-linejoin="round"/>
<path id="Vector_7" d="M16 24H24C24.7072 24 25.3855 24.281 25.8856 24.781C26.3857 25.2811 26.6667 25.9594 26.6667 26.6667V28" stroke="var(--stroke-0, #079455)" stroke-width="3" stroke-linecap="round" stroke-linejoin="round"/>
<path id="Vector_8" d="M16 10.6667H26.6667" stroke="var(--stroke-0, #079455)" stroke-width="3" stroke-linecap="round" stroke-linejoin="round"/>
<path id="Vector_9" d="M21.3333 10.6667V6.66667C21.3333 5.95942 21.6143 5.28115 22.1144 4.78105C22.6145 4.28095 23.2928 4 24 4" stroke="var(--stroke-0, #079455)" stroke-width="3" stroke-linecap="round" stroke-linejoin="round"/>
<path id="Vector_10" d="M21.3333 18C21.7015 18 22 17.7015 22 17.3333C22 16.9651 21.7015 16.6667 21.3333 16.6667C20.9651 16.6667 20.6667 16.9651 20.6667 17.3333C20.6667 17.7015 20.9651 18 21.3333 18Z" stroke="var(--stroke-0, #079455)" stroke-width="3" stroke-linecap="round" stroke-linejoin="round"/>
<path id="Vector_11" d="M24 4.66667C24.3682 4.66667 24.6667 4.36819 24.6667 4C24.6667 3.63181 24.3682 3.33333 24 3.33333C23.6318 3.33333 23.3333 3.63181 23.3333 4C23.3333 4.36819 23.6318 4.66667 24 4.66667Z" stroke="var(--stroke-0, #079455)" stroke-width="3" stroke-linecap="round" stroke-linejoin="round"/>
<path id="Vector_12" d="M26.6667 28.6667C27.0349 28.6667 27.3333 28.3682 27.3333 28C27.3333 27.6318 27.0349 27.3333 26.6667 27.3333C26.2985 27.3333 26 27.6318 26 28C26 28.3682 26.2985 28.6667 26.6667 28.6667Z" stroke="var(--stroke-0, #079455)" stroke-width="3" stroke-linecap="round" stroke-linejoin="round"/>
<path id="Vector_13" d="M26.6667 11.3333C27.0349 11.3333 27.3333 11.0349 27.3333 10.6667C27.3333 10.2985 27.0349 10 26.6667 10C26.2985 10 26 10.2985 26 10.6667C26 11.0349 26.2985 11.3333 26.6667 11.3333Z" stroke="var(--stroke-0, #079455)" stroke-width="3" stroke-linecap="round" stroke-linejoin="round"/>
</g>
</svg>
