<svg preserveAspectRatio="none" width="100%" height="100%" overflow="visible" style="display: block;" viewBox="0 0 32 32" fill="none" xmlns="http://www.w3.org/2000/svg">
<g id="Global">
<path id="Vector" d="M28.72 20H22.6667C21.9594 20 21.2811 20.281 20.781 20.781C20.281 21.2811 20 21.9594 20 22.6667V28.72" stroke="var(--stroke-0, #0E7090)" stroke-width="3" stroke-linecap="round" stroke-linejoin="round"/>
<path id="Vector_2" d="M9.33333 4.45333V6.66667C9.33333 7.72753 9.75476 8.74495 10.5049 9.49509C11.2551 10.2452 12.2725 10.6667 13.3333 10.6667C14.0406 10.6667 14.7189 10.9476 15.219 11.4477C15.719 11.9478 16 12.6261 16 13.3333C16 14.8 17.2 16 18.6667 16C19.3739 16 20.0522 15.719 20.5523 15.219C21.0524 14.7189 21.3333 14.0406 21.3333 13.3333C21.3333 11.8667 22.5333 10.6667 24 10.6667H28.2267" stroke="var(--stroke-0, #0E7090)" stroke-width="3" stroke-linecap="round" stroke-linejoin="round"/>
<path id="Vector_3" d="M14.6667 29.2667V24C14.6667 23.2928 14.3857 22.6145 13.8856 22.1144C13.3855 21.6143 12.7072 21.3333 12 21.3333C11.2928 21.3333 10.6145 21.0524 10.1144 20.5523C9.61429 20.0522 9.33333 19.3739 9.33333 18.6667V17.3333C9.33333 16.6261 9.05238 15.9478 8.55229 15.4477C8.05219 14.9476 7.37391 14.6667 6.66667 14.6667H2.73333" stroke="var(--stroke-0, #0E7090)" stroke-width="3" stroke-linecap="round" stroke-linejoin="round"/>
<path id="Vector_4" d="M16 29.3333C23.3638 29.3333 29.3333 23.3638 29.3333 16C29.3333 8.6362 23.3638 2.66667 16 2.66667C8.6362 2.66667 2.66667 8.6362 2.66667 16C2.66667 23.3638 8.6362 29.3333 16 29.3333Z" stroke="var(--stroke-0, #0E7090)" stroke-width="3" stroke-linecap="round" stroke-linejoin="round"/>
</g>
</svg>
