<svg preserveAspectRatio="none" width="100%" height="100%" overflow="visible" style="display: block;" viewBox="0 0 108.75 18.0546" fill="none" xmlns="http://www.w3.org/2000/svg">
<g id="Logo" clip-path="url(#clip0_0_67)">
<path id="Vector" d="M64.4179 1.65577C65.7253 1.60236 67.39 1.65097 68.7196 1.65229L75.9211 1.65799C76.8677 1.65799 77.3468 2.32475 77.3468 3.12278C77.3909 3.68756 77.3691 4.49105 77.3686 5.06977L77.367 8.41825C77.367 9.48015 76.7168 9.96903 75.894 9.96903C75.3184 10.0202 74.4943 10.0107 73.8927 10.0269C74.1189 10.4229 74.6615 11.0364 74.9499 11.4238C75.7926 12.5572 76.878 13.7608 77.6628 14.9184C76.5365 14.9297 75.4097 14.9305 74.2835 14.9207C73.9904 14.6059 73.5645 14.0287 73.291 13.6791L71.4113 11.2642C71.1197 10.8892 70.791 10.4494 70.4682 10.0997C70.3625 9.98539 70.2616 9.99633 70.106 9.97291C69.1821 10.0067 68.1249 9.93877 67.2211 10.0155L67.2285 14.916C66.2902 14.927 65.3514 14.926 64.4131 14.9128C64.3671 13.1254 64.3829 11.2339 64.3984 9.36966C64.4114 7.8095 67.2391 6.55072 67.2391 6.55072V7.31661L71.8419 7.32797C72.4318 7.32802 73.8247 7.36228 74.3366 7.26563C74.5054 7.11328 74.5394 6.8533 74.5559 6.63675C74.5766 6.3534 74.6148 4.62511 74.4789 4.47442C74.3121 4.28955 66.7437 4.41802 65.8628 4.36394C64.8515 4.36394 64.4163 3.65318 64.4163 2.88348C64.3967 2.45437 64.4062 2.08422 64.4179 1.65577Z" fill="var(--fill-0, #101828)"/>
<path id="Vector_2" d="M95.3255 1.65352C96.6576 1.61158 98.2157 1.64781 99.5676 1.64795L107.026 1.65615C107.357 1.98573 108.259 2.84443 108.463 3.19809C108.539 4.69232 108.489 7.31188 108.445 8.83813C107.972 9.33755 107.406 9.94185 106.901 10.3935C106.025 10.4317 104.918 10.4009 104.028 10.4012L98.097 10.4102C98.1816 11.6971 98.126 13.5688 98.1273 14.9172L96.8339 14.9207L95.3126 14.9159C95.2576 14.2829 95.3003 12.805 95.3014 12.1181V9.32944C95.3014 7.76191 96.5721 6.49119 98.1396 6.49119V7.69885C100.434 7.69885 105.597 7.67308 105.597 7.67308V4.51303C105.597 4.51303 103.54 4.51203 103.081 4.51303H99.0278C98.4199 4.5204 97.3113 4.51303 96.8565 4.51303C96.4017 4.51303 95.3142 3.9249 95.3142 2.86458C95.3044 2.45618 95.3155 2.06141 95.3255 1.65352Z" fill="var(--fill-0, #101828)"/>
<path id="Vector_3" d="M34.0366 1.65352C35.3687 1.61158 36.9268 1.64781 38.2788 1.64795L45.7375 1.65615C46.0679 1.98573 46.9698 2.84443 47.1746 3.19809C47.2504 4.69232 47.1997 7.31188 47.156 8.83813C46.6831 9.33755 46.1174 9.94185 45.6119 10.3935C44.736 10.4317 43.6289 10.4009 42.7388 10.4012L36.8082 10.4102C36.8927 11.6971 36.8371 13.5688 36.8384 14.9172L35.545 14.9207L34.0238 14.9159C33.9687 14.2829 34.0114 12.805 34.0125 12.1181V9.32944C34.0125 7.76191 35.2832 6.49119 36.8508 6.49119V7.69885C39.1453 7.69885 44.3078 7.67308 44.3078 7.67308V4.51303C44.3078 4.51303 42.251 4.51203 41.7924 4.51303H37.7389C37.1311 4.5204 36.0224 4.51303 35.5676 4.51303C35.1128 4.51303 34.0254 3.9249 34.0254 2.86458C34.0155 2.45618 34.0266 2.06141 34.0366 1.65352Z" fill="var(--fill-0, #101828)"/>
<path id="Vector_4" d="M29.0098 1.65148C29.7929 1.64447 30.576 1.64492 31.3591 1.65281C31.4027 2.27805 31.3721 3.61291 31.353 4.26917C30.6207 5.03011 29.8869 5.85307 29.168 6.63277C28.0702 7.81199 26.9906 9.01979 25.8869 10.1901C25.916 11.7632 25.9254 13.3366 25.9152 14.9099C24.9861 14.9392 23.9873 14.9215 23.0523 14.9192L23.0521 10.2587C22.8985 10.0727 22.7228 9.88784 22.5614 9.70756C20.9249 7.88012 19.1672 6.12304 17.5744 4.2598C17.5647 3.40107 17.5421 2.51082 17.5703 1.6548C18.3754 1.6423 19.1806 1.64326 19.9857 1.65766C20.0044 2.06177 20.0154 2.46619 20.0188 2.87072C20.1861 3.1232 21.3704 4.40082 21.6297 4.6653C22.5602 5.61444 23.5473 6.81405 24.4773 7.72947C25.4862 6.71215 26.4666 5.59686 27.4499 4.548C27.7779 4.19813 28.8061 3.12043 28.9935 2.79574L29.0098 1.65148Z" fill="var(--fill-0, #101828)"/>
<path id="Vector_5" d="M12.533 1.65603C13.3878 1.62382 14.5408 1.63608 15.3977 1.66358C15.4215 2.35683 15.409 3.12442 15.3897 3.82072C15.2871 7.51091 15.421 11.215 15.387 14.9005C14.7556 14.9693 13.1531 14.9227 12.4758 14.9185C12.4693 13.5964 12.4708 12.2743 12.4802 10.9522L12.4778 9.65717C10.2374 9.64368 7.89144 9.70177 5.67146 9.64559C5.6182 8.98734 5.65134 7.63962 5.67497 6.96731C8.00364 6.84501 10.2076 6.98085 12.4896 6.93056C12.4631 5.21611 12.507 3.37329 12.533 1.65603Z" fill="var(--fill-0, #101828)"/>
<path id="Vector_6" d="M1.69892 1.65575C2.61998 1.62599 3.6518 1.64913 4.58111 1.65139C4.86779 2.00939 4.59214 9.03753 4.65154 9.95517C4.6725 10.279 4.67819 11.6862 4.66408 12.0907C4.68026 13.0259 4.68342 13.9613 4.67355 14.8965C4.30112 14.9362 3.86468 14.9578 3.48936 14.9301C2.94737 14.9743 2.22001 14.96 1.67718 14.9235C1.59547 14.1901 1.6854 11.9733 1.68481 11.0792L1.69892 1.65575Z" fill="var(--fill-0, #101828)"/>
<path id="Vector_7" d="M4.58111 1.65139C4.86779 2.00939 4.59214 9.03753 4.65154 9.95517C4.6725 10.279 4.67819 11.6862 4.66408 12.0907C4.58924 12.4182 4.52478 12.748 4.47079 13.0796L4.51883 5.41483C4.5221 4.84474 4.46176 1.98406 4.58111 1.65139Z" fill="var(--fill-0, #101828)"/>
<path id="Vector_8" d="M4.47079 13.0796C4.52478 12.748 4.58924 12.4182 4.66408 12.0907C4.68026 13.0259 4.68342 13.9613 4.67355 14.8965C4.30112 14.9362 3.86468 14.9578 3.48936 14.9301C3.78933 14.8388 4.13515 14.8612 4.45167 14.8637C4.47358 14.2759 4.44242 13.6873 4.47079 13.0796Z" fill="var(--fill-0, #101828)"/>
<path id="Rectangle 42646" d="M49.333 1.63034H62.255C62.255 3.29778 60.9033 4.6495 59.2358 4.6495H52.3522C50.6847 4.6495 49.333 3.29778 49.333 1.63034Z" fill="var(--fill-0, #101828)"/>
<path id="Rectangle 42647" d="M49.333 11.8955H62.255C62.255 13.5629 60.9033 14.9146 59.2358 14.9146H52.3522C50.6847 14.9146 49.333 13.5629 49.333 11.8955Z" fill="var(--fill-0, #101828)"/>
<path id="Rectangle 42648" d="M49.333 6.94406H62.255C62.255 8.61149 60.9033 9.96322 59.2358 9.96322H52.3522C50.6847 9.96322 49.333 8.61149 49.333 6.94406Z" fill="var(--fill-0, #101828)"/>
<path id="Vector 5 (Stroke)" d="M90.1822 8.01291V4.67969C90.1822 2.97891 91.561 1.60015 93.2617 1.60015V8.01291C93.2617 11.5111 90.674 14.4701 87.213 14.9482C86.5791 15.0357 85.9348 15.0355 85.3004 14.9469C81.8676 14.4675 79.3132 11.5315 79.3132 8.06545V1.60015C81.014 1.60015 82.3928 2.97891 82.3928 4.67969V8.06545C82.3928 9.99528 83.815 11.63 85.7263 11.8969C86.0791 11.9462 86.4383 11.9464 86.7917 11.8976C88.7335 11.6294 90.1822 9.9688 90.1822 8.01291Z" fill="var(--fill-0, #101828)"/>
</g>
<defs>
<clipPath id="clip0_0_67">
<rect width="108.75" height="18.0546" fill="white"/>
</clipPath>
</defs>
</svg>
