<svg preserveAspectRatio="none" width="100%" height="100%" overflow="visible" style="display: block;" viewBox="0 0 32 32" fill="none" xmlns="http://www.w3.org/2000/svg">
<g id="Symbol">
<g id="Union">
<path d="M31 16C30.0922 16.9905 29.0588 18.2708 28.1748 19.3107L22.5137 25.9758C22.3116 26.0107 21.5431 25.9977 21.3111 25.9973L18.9381 25.9931L10.2 25.9981C10.5326 25.6546 10.9327 25.1597 11.2462 24.7903L12.99 22.7354L18.7231 16.0003L13.1245 9.41108C12.2158 8.3404 11.0914 7.08571 10.2373 6.00201C11.6416 6.0561 13.4546 6.00612 14.8982 6.00563L22.5093 6L31 16Z" fill="url(#paint0_linear_0_82)"/>
<path d="M11.0928 10.7139C11.2631 10.7436 12.6493 12.4404 12.8536 12.6812L15.6818 15.9994C15.2973 16.3888 14.7438 17.0975 14.3666 17.5302C13.2864 18.769 12.2455 20.0653 11.156 21.2964C10.0038 20.7435 8.66522 20.001 7.51852 19.3997C7.17925 19.2014 6.72407 18.9818 6.3682 18.795L3.88579 17.4987C3.08906 17.083 1.78912 16.3416 0.999999 15.9939C1.46513 15.7953 2.22665 15.3664 2.69361 15.1215L9.15203 11.7397C9.74838 11.4298 10.5325 11.0536 11.0928 10.7139Z" fill="url(#paint1_linear_0_82)"/>
</g>
</g>
<defs>
<linearGradient id="paint0_linear_0_82" x1="1.00644" y1="16.3248" x2="31.3692" y2="28.8173" gradientUnits="userSpaceOnUse">
<stop stop-color="#AD00FE"/>
<stop offset="1" stop-color="#00E0EE"/>
</linearGradient>
<linearGradient id="paint1_linear_0_82" x1="1.00644" y1="16.3248" x2="31.3692" y2="28.8173" gradientUnits="userSpaceOnUse">
<stop stop-color="#AD00FE"/>
<stop offset="1" stop-color="#00E0EE"/>
</linearGradient>
</defs>
</svg>
