<svg preserveAspectRatio="none" width="100%" height="100%" overflow="visible" style="display: block;" viewBox="0 0 145 24" fill="none" xmlns="http://www.w3.org/2000/svg">
<g id="Logo">
<path id="Vector" d="M85.8906 2.20103C87.6337 2.13002 89.8533 2.19464 91.6261 2.1964L101.228 2.20398C102.49 2.20398 103.129 3.0903 103.129 4.15113C103.188 4.90189 103.159 5.96998 103.158 6.73926L103.156 11.1904C103.156 12.602 102.289 13.2519 101.192 13.2519C100.425 13.3199 99.3257 13.3073 98.5235 13.3288C98.8252 13.8552 99.5487 14.6708 99.9332 15.1856C101.057 16.6924 102.504 18.2922 103.55 19.8311C102.049 19.8462 100.546 19.8472 99.0446 19.8342C98.6538 19.4156 98.086 18.6484 97.7214 18.1837L95.215 14.9736C94.8263 14.4751 94.3881 13.8905 93.9576 13.4255C93.8167 13.2736 93.6822 13.2882 93.4747 13.257C92.2428 13.3019 90.8332 13.2116 89.6281 13.3136L89.638 19.8279C88.387 19.8426 87.1352 19.8412 85.8842 19.8237C85.8229 17.4513 85.8438 14.941 85.8644 12.4665C85.8818 10.3863 89.6522 8.7079 89.6522 8.7079V9.726L95.7892 9.74111C96.5758 9.74118 98.4329 9.78671 99.1154 9.65823C99.3406 9.45572 99.3859 9.11012 99.4078 8.82226C99.4355 8.4456 99.4864 6.14819 99.3052 5.94787C99.0829 5.70212 88.9916 5.8729 87.817 5.80101C86.4686 5.80101 85.8884 4.85619 85.8884 3.83302C85.8622 3.2626 85.875 2.77057 85.8906 2.20103Z" fill="var(--fill-0, #101828)"/>
<path id="Vector_2" d="M127.101 2.19803C128.877 2.14228 130.954 2.19045 132.757 2.19062L142.702 2.20152C143.142 2.63963 144.345 3.78111 144.618 4.25123C144.719 6.23752 144.651 9.71972 144.593 11.7486C143.963 12.4124 143.208 13.2157 142.534 13.8162C141.367 13.8668 139.89 13.8259 138.704 13.8264L130.796 13.8383C130.909 15.549 130.835 18.0371 130.836 19.8295L129.112 19.8342L127.084 19.8277C127.01 18.9863 127.067 17.0218 127.069 16.1086V12.4131C127.069 10.3231 128.763 8.62876 130.853 8.62876V10.2341C133.912 10.2341 140.796 10.1999 140.796 10.1999V5.9992C140.796 5.9992 138.053 5.99786 137.442 5.9992H132.037C131.227 6.00899 129.748 5.9992 129.142 5.9992C128.536 5.9992 127.086 5.21739 127.086 3.8079C127.073 3.26501 127.087 2.74024 127.101 2.19803Z" fill="var(--fill-0, #101828)"/>
<path id="Vector_3" d="M45.3822 2.19803C47.1583 2.14228 49.2358 2.19045 51.0384 2.19062L60.9833 2.20152C61.4239 2.63963 62.6264 3.78111 62.8994 4.25123C63.0005 6.23752 62.9329 9.71972 62.8747 11.7486C62.2441 12.4124 61.4898 13.2157 60.8159 13.8162C59.648 13.8668 58.1718 13.8259 56.9851 13.8264L49.0775 13.8383C49.1903 15.549 49.1161 18.0371 49.1179 19.8295L47.3933 19.8342L45.365 19.8277C45.2916 18.9863 45.3486 17.0218 45.35 16.1086V12.4131C45.35 10.3231 47.0443 8.62876 49.1344 8.62876V10.2341C52.1938 10.2341 59.0771 10.1999 59.0771 10.1999V5.9992C59.0771 5.9992 56.3347 5.99786 55.7232 5.9992H50.3185C49.5081 6.00899 48.0299 5.9992 47.4235 5.9992C46.817 5.9992 45.3671 5.21739 45.3671 3.8079C45.354 3.26501 45.3688 2.74024 45.3822 2.19803Z" fill="var(--fill-0, #101828)"/>
<path id="Vector_4" d="M38.6797 2.19532C39.7238 2.186 40.768 2.1866 41.8122 2.19709C41.8703 3.02822 41.8295 4.80266 41.804 5.67503C40.8276 6.68655 39.8492 7.78052 38.8907 8.81696C37.4269 10.3845 35.9874 11.99 34.5158 13.5458C34.5546 15.6369 34.5671 17.7284 34.5535 19.8198C33.3148 19.8588 31.9831 19.8352 30.7364 19.8322L30.7362 13.6369C30.5314 13.3897 30.2971 13.144 30.0818 12.9043C27.8998 10.4751 25.5563 8.13939 23.4326 5.66257C23.4196 4.52106 23.3895 3.33764 23.4271 2.19973C24.5005 2.18312 25.5742 2.18439 26.6476 2.20354C26.6725 2.74072 26.6872 3.27832 26.6918 3.81606C26.9148 4.15168 28.4938 5.85004 28.8396 6.2016C30.0802 7.46329 31.3964 9.05795 32.6364 10.2748C33.9816 8.92249 35.2887 7.43993 36.5999 6.04568C37.0372 5.58059 38.4081 4.148 38.658 3.71639L38.6797 2.19532Z" fill="var(--fill-0, #101828)"/>
<path id="Vector_5" d="M16.7107 2.20137C17.8504 2.15855 19.3877 2.17485 20.5302 2.2114C20.562 3.13294 20.5454 4.15331 20.5196 5.0789C20.3828 9.98428 20.5613 14.9081 20.5159 19.8073C19.6741 19.8988 17.5374 19.8368 16.6344 19.8312C16.6257 18.0738 16.6277 16.3163 16.6403 14.5588L16.637 12.8373C13.6498 12.8194 10.5219 12.8966 7.56195 12.8219C7.49094 11.9469 7.53512 10.1554 7.56662 9.26167C10.6715 9.09911 13.6101 9.27967 16.6528 9.21282C16.6175 6.9338 16.6761 4.48413 16.7107 2.20137Z" fill="var(--fill-0, #101828)"/>
<path id="Vector_6" d="M2.26523 2.201C3.49331 2.16144 4.86907 2.1922 6.10815 2.1952C6.49039 2.67109 6.12285 12.0136 6.20205 13.2335C6.23 13.6639 6.23758 15.5346 6.21877 16.0722C6.24035 17.3154 6.24456 18.5588 6.2314 19.802C5.73483 19.8547 5.1529 19.8835 4.65248 19.8467C3.92983 19.9055 2.96001 19.8863 2.23624 19.8379C2.12729 18.8629 2.2472 15.9162 2.24642 14.7277L2.26523 2.201Z" fill="var(--fill-0, #101828)"/>
<path id="Vector_7" d="M6.10815 2.1952C6.49039 2.67109 6.12285 12.0136 6.20205 13.2335C6.23 13.6639 6.23758 15.5346 6.21877 16.0722C6.11899 16.5076 6.03304 16.946 5.96105 17.3867L6.02511 7.19795C6.02947 6.44014 5.94901 2.63742 6.10815 2.1952Z" fill="var(--fill-0, #101828)"/>
<path id="Vector_8" d="M5.96105 17.3867C6.03304 16.946 6.11899 16.5076 6.21877 16.0722C6.24035 17.3154 6.24456 18.5588 6.2314 19.802C5.73483 19.8547 5.1529 19.8835 4.65248 19.8467C5.05244 19.7253 5.51353 19.7551 5.93556 19.7584C5.96477 18.977 5.92323 18.1945 5.96105 17.3867Z" fill="var(--fill-0, #101828)"/>
<path id="Rectangle 42646" d="M65.7773 2.16722H83.0067C83.0067 4.38375 81.2098 6.1806 78.9933 6.1806H69.7907C67.5742 6.1806 65.7773 4.38375 65.7773 2.16722Z" fill="var(--fill-0, #101828)"/>
<path id="Rectangle 42647" d="M65.7773 15.8127H83.0067C83.0067 18.0292 81.2098 19.8261 78.9933 19.8261H69.7907C67.5742 19.8261 65.7773 18.0292 65.7773 15.8127Z" fill="var(--fill-0, #101828)"/>
<path id="Rectangle 42648" d="M65.7773 9.23077H83.0067C83.0067 11.4473 81.2098 13.2441 78.9933 13.2441H69.7907C67.5742 13.2441 65.7773 11.4473 65.7773 9.23077Z" fill="var(--fill-0, #101828)"/>
<path id="Vector 5 (Stroke)" d="M120.243 10.6516V6.23315C120.243 3.96544 122.081 2.12709 124.349 2.12709V10.6516C124.349 15.3018 120.899 19.2352 116.284 19.8707C115.439 19.9871 114.58 19.9867 113.734 19.869C109.157 19.2317 105.751 15.3289 105.751 10.7214V2.12709C108.019 2.12709 109.857 3.96543 109.857 6.23314V10.7214C109.857 13.2868 111.753 15.4598 114.302 15.8147C114.772 15.8802 115.251 15.8804 115.722 15.8155C118.311 15.459 120.243 13.2516 120.243 10.6516Z" fill="var(--fill-0, #101828)"/>
</g>
</svg>
