<svg preserveAspectRatio="none" width="100%" height="100%" overflow="visible" style="display: block;" viewBox="0 0 554 155.5" fill="none" xmlns="http://www.w3.org/2000/svg">
<g id="Union" opacity="0.25">
<path fill-rule="evenodd" clip-rule="evenodd" d="M242.5 0C257.613 0 270.427 11.1095 272.569 26.0693L274.336 38.4033C275.055 43.4247 282.289 43.4699 283.071 38.458L285.614 22.1602C287.604 9.40467 298.59 0 311.5 0H537.5C546.613 0 554 7.3873 554 16.5V139C554 148.113 546.613 155.5 537.5 155.5H311.5C298.519 155.5 287.394 146.216 285.072 133.444L282.72 120.501C281.899 115.988 275.412 116.035 274.657 120.56L273.159 129.534C270.658 144.519 257.692 155.5 242.5 155.5H16.5C7.3873 155.5 0 148.113 0 139V16.5C0 7.3873 7.3873 0 16.5 0H242.5Z" fill="var(--fill-0, #D0D5DD)"/>
<path fill-rule="evenodd" clip-rule="evenodd" d="M242.5 0C257.613 0 270.427 11.1095 272.569 26.0693L274.336 38.4033C275.055 43.4247 282.289 43.4699 283.071 38.458L285.614 22.1602C287.604 9.40467 298.59 0 311.5 0H537.5C546.613 0 554 7.3873 554 16.5V139C554 148.113 546.613 155.5 537.5 155.5H311.5C298.519 155.5 287.394 146.216 285.072 133.444L282.72 120.501C281.899 115.988 275.412 116.035 274.657 120.56L273.159 129.534C270.658 144.519 257.692 155.5 242.5 155.5H16.5C7.3873 155.5 0 148.113 0 139V16.5C0 7.3873 7.3873 0 16.5 0H242.5Z" fill="url(#paint0_linear_0_437)"/>
</g>
<defs>
<linearGradient id="paint0_linear_0_437" x1="0.500014" y1="77.75" x2="553.5" y2="77.75" gradientUnits="userSpaceOnUse">
<stop stop-color="#F093FB"/>
<stop offset="0.4592" stop-color="#F375B4"/>
<stop offset="0.610409" stop-color="#009EFD"/>
<stop offset="1" stop-color="#2AF598"/>
</linearGradient>
</defs>
</svg>
