<svg preserveAspectRatio="none" width="100%" height="100%" overflow="visible" style="display: block;" viewBox="0 0 24 24" fill="none" xmlns="http://www.w3.org/2000/svg">
<g id="Star">
<path id="Path" fill-rule="evenodd" clip-rule="evenodd" d="M9.40863 1.67304C9.89537 0.648597 10.9 0 12 0C13.1 0 14.1046 0.648597 14.5914 1.67304L16.0616 4.76815C16.4824 5.65403 17.2961 6.26809 18.2374 6.41016L21.5262 6.90659C22.6144 7.07095 23.5184 7.86247 23.8584 8.94849C24.1983 10.0345 23.9153 11.2268 23.1281 12.0242L20.7474 14.4358C20.0668 15.1252 19.7563 16.1181 19.917 17.0912L20.4788 20.4921C20.6646 21.6177 20.219 22.7554 19.3293 23.4267C18.4396 24.0981 17.2601 24.1868 16.2866 23.6556L13.3443 22.0497C12.5027 21.5904 11.4973 21.5904 10.6557 22.0497L7.71344 23.6556C6.73988 24.1868 5.56035 24.0981 4.67066 23.4267C3.78098 22.7554 3.3354 21.6177 3.52123 20.4921L4.08301 17.0912C4.24373 16.1181 3.93323 15.1252 3.25264 14.4358L0.871863 12.0242C0.0847486 11.2268 -0.198314 10.0345 0.141639 8.94849C0.481592 7.86247 1.38563 7.07095 2.47382 6.90659L5.76264 6.41016C6.70394 6.26809 7.51761 5.65403 7.9384 4.76815L9.40863 1.67304Z" fill="var(--fill-0, #FFAD12)"/>
</g>
</svg>
